<svg width="24" height="24" viewBox="0 0 24 24" fill="none" xmlns="http://www.w3.org/2000/svg">
<path d="M12 16.8006C11.3 16.8006 10.6 16.5306 10.07 16.0006L3.54998 9.48062C3.4105 9.33949 3.33228 9.14906 3.33228 8.95062C3.33228 8.75219 3.4105 8.56176 3.54998 8.42063C3.83998 8.13063 4.31998 8.13063 4.60998 8.42063L11.13 14.9406C11.61 15.4206 12.39 15.4206 12.87 14.9406L19.39 8.42063C19.68 8.13063 20.16 8.13063 20.45 8.42063C20.74 8.71062 20.74 9.19062 20.45 9.48062L13.93 16.0006C13.4 16.5306 12.7 16.8006 12 16.8006Z" fill="white"/>
</svg>
