<svg width="76" height="71" viewBox="0 0 76 71" fill="none" xmlns="http://www.w3.org/2000/svg">
<g filter="url(#filter0_d_190_1473)">
<path d="M38 10C43.1423 10 48.1691 11.3572 52.4448 13.8998C56.7205 16.4425 60.053 20.0566 62.0209 24.2849C63.9887 28.5132 64.5036 33.166 63.5004 37.6548C62.4972 42.1435 60.0209 46.2668 56.3848 49.503C52.7486 52.7392 48.1159 54.9431 43.0723 55.836C38.0288 56.7289 32.8011 56.2706 28.0502 54.5192C23.2994 52.7677 19.2387 49.8018 16.3818 45.9964C13.5249 42.191 12 37.717 12 33.1403C12 27.0031 14.7393 21.1173 19.6152 16.7776C24.4912 12.438 31.1044 10 38 10Z" fill="white"/>
</g>
<mask id="mask0_190_1473" style="mask-type:luminance" maskUnits="userSpaceOnUse" x="28" y="24" width="20" height="19">
<path d="M28 24.2403V42.0405H48V24.2403H28Z" fill="white"/>
</mask>
<g mask="url(#mask0_190_1473)">
<path d="M38.8497 24.9942V41.2867C38.8497 41.4868 38.7604 41.6786 38.6015 41.8201C38.4426 41.9615 38.227 42.041 38.0022 42.041C37.7775 42.041 37.5619 41.9615 37.403 41.8201C37.244 41.6786 37.1547 41.4868 37.1547 41.2867V24.9942C37.1547 24.7941 37.244 24.6023 37.403 24.4608C37.5619 24.3194 37.7775 24.2399 38.0022 24.2399C38.227 24.2399 38.4426 24.3194 38.6015 24.4608C38.7604 24.6023 38.8497 24.7941 38.8497 24.9942Z" fill="#EE0033"/>
<path d="M46.0118 31.3694C46.0122 31.4685 45.9906 31.5667 45.9482 31.6583C45.9058 31.75 45.8435 31.8333 45.7648 31.9034C45.6049 32.0438 45.3894 32.1226 45.1648 32.1226C44.9401 32.1226 44.7246 32.0438 44.5648 31.9034L38.0018 26.0506L31.4388 31.9034C31.2779 32.0373 31.0649 32.1103 30.8446 32.1071C30.6244 32.1038 30.4142 32.0245 30.2584 31.8858C30.1027 31.7472 30.0136 31.5602 30.0099 31.3641C30.0062 31.1681 30.0883 30.9785 30.2388 30.8353L37.4018 24.4602C37.5616 24.3197 37.7771 24.241 38.0018 24.241C38.2264 24.241 38.4419 24.3197 38.6018 24.4602L45.7648 30.8353C45.8435 30.9055 45.9058 30.9887 45.9482 31.0804C45.9906 31.172 46.0122 31.2702 46.0118 31.3694Z" fill="#EE0033"/>
</g>
<g clip-path="url(#clip0_190_1473)">
<path d="M35.2149 42.5603C35.2149 42.5603 20.7649 43.566 19.2829 39.0403C17.8009 34.5146 22.2469 26.8026 29.8429 24.2883C37.4389 21.7741 50.1649 21.4777 53.7429 25.8103C56.2939 28.8274 58.7429 38.7056 53.7429 41.2199C49.8529 42.7329 43.3269 42.5612 42.2569 42.5612C40.6729 42.5612 35.2169 46.5849 35.2169 46.5849L35.2149 42.5603Z" fill="#EE0033"/>
<path d="M37.316 40.5044C37.316 40.5044 25.623 41.3134 24.754 38.6594C23.885 36.0054 27.236 30.4918 31.691 29.017C36.146 27.5423 47.043 27.5761 49.141 30.1171C50.641 31.8864 52.863 38.2162 49.927 39.6945C47.645 40.5792 42.072 40.5044 41.445 40.5044C40.516 40.5044 37.316 42.8638 37.316 42.8638V40.5044Z" fill="white"/>
<path d="M27.158 28.6664C27.4317 28.6705 27.7006 28.6019 27.9303 28.4696C28.1601 28.3372 28.3404 28.147 28.4484 27.9231C28.5563 27.6992 28.5869 27.4518 28.5363 27.2124C28.4857 26.973 28.3562 26.7524 28.1643 26.5787C27.9724 26.405 27.7268 26.2861 27.4586 26.237C27.1905 26.188 26.9121 26.2111 26.6588 26.3033C26.4055 26.3956 26.1887 26.5529 26.0361 26.7551C25.8836 26.9574 25.8021 27.1955 25.802 27.4391C25.7991 27.7618 25.9403 28.0724 26.1946 28.3026C26.4489 28.5327 26.7954 28.6636 27.158 28.6664Z" fill="white"/>
<path d="M49.763 28.0639C50.0367 28.0679 50.3055 27.9994 50.5353 27.867C50.7651 27.7347 50.9454 27.5444 51.0533 27.3206C51.1612 27.0967 51.1919 26.8493 51.1413 26.6099C51.0907 26.3705 50.9612 26.1499 50.7693 25.9762C50.5774 25.8025 50.3317 25.6835 50.0636 25.6345C49.7955 25.5855 49.5171 25.6085 49.2638 25.7008C49.0104 25.7931 48.7937 25.9503 48.6411 26.1526C48.4886 26.3548 48.4071 26.5929 48.407 26.8365C48.4041 27.1593 48.5453 27.4699 48.7996 27.7C49.0538 27.9302 49.4004 28.061 49.763 28.0639Z" fill="white"/>
<path d="M31.958 30.4977L27.569 27.1655L26.9 27.8873L31.289 31.2195L31.958 30.4977Z" fill="white"/>
<path d="M46.173 31.3676L49.932 27.4516L49.146 26.833L45.387 30.7491L46.173 31.3676Z" fill="white"/>
<path d="M34.844 36.0291C35.2088 36.0346 35.5672 35.9433 35.8736 35.767C36.18 35.5907 36.4205 35.3372 36.5645 35.0389C36.7086 34.7405 36.7497 34.4108 36.6826 34.0916C36.6155 33.7724 36.4433 33.4782 36.1878 33.2464C35.9322 33.0146 35.605 32.8557 35.2478 32.7898C34.8905 32.724 34.5193 32.7543 34.1814 32.8767C33.8434 32.9992 33.5541 33.2084 33.3501 33.4777C33.1462 33.7469 33.0368 34.0641 33.036 34.3888C33.0335 34.6022 33.0783 34.814 33.1678 35.012C33.2574 35.2099 33.3899 35.3903 33.5578 35.5426C33.7258 35.695 33.9258 35.8164 34.1465 35.8998C34.3672 35.9833 34.6042 36.0272 34.844 36.0291Z" fill="#EE0033"/>
<path d="M46.598 36.0291C46.9628 36.0346 47.3212 35.9433 47.6276 35.767C47.934 35.5907 48.1745 35.3372 48.3186 35.0389C48.4626 34.7405 48.5037 34.4108 48.4366 34.0916C48.3696 33.7724 48.1973 33.4782 47.9418 33.2464C47.6863 33.0146 47.3591 32.8557 47.0018 32.7898C46.6445 32.724 46.2733 32.7543 45.9354 32.8767C45.5975 32.9992 45.3081 33.2084 45.1042 33.4777C44.9002 33.7469 44.7909 34.0641 44.79 34.3888C44.7875 34.6022 44.8323 34.814 44.9218 35.012C45.0114 35.2099 45.1439 35.3903 45.3118 35.5426C45.4798 35.695 45.6798 35.8164 45.9005 35.8998C46.1212 35.9833 46.3582 36.0272 46.598 36.0291Z" fill="#EE0033"/>
<path d="M42.42 35.6199C42.446 35.6368 42.4677 35.6584 42.4836 35.6833C42.4996 35.7081 42.5094 35.7357 42.5125 35.7642C42.5157 35.7927 42.512 35.8215 42.5017 35.8486C42.4914 35.8757 42.4748 35.9006 42.453 35.9216C42.2363 36.1196 41.9762 36.2757 41.6887 36.3802C41.4012 36.4846 41.0926 36.5352 40.7822 36.5288C40.4718 36.5223 40.1662 36.459 39.8845 36.3428C39.6028 36.2265 39.3511 36.0598 39.145 35.8531C39.1243 35.8313 39.1089 35.8057 39.1001 35.7782C39.0912 35.7508 39.0889 35.7219 39.0935 35.6936C39.098 35.6653 39.1092 35.6381 39.1264 35.6139C39.1435 35.5897 39.1662 35.569 39.193 35.5532C39.2487 35.5209 39.3155 35.5075 39.3814 35.5154C39.4472 35.5232 39.5078 35.5518 39.552 35.5959C39.7121 35.7469 39.9042 35.8681 40.1173 35.9525C40.3304 36.0369 40.5602 36.0828 40.7934 36.0876C41.0266 36.0924 41.2585 36.056 41.4757 35.9804C41.693 35.9049 41.8912 35.7917 42.059 35.6475C42.1055 35.6053 42.1675 35.5793 42.2337 35.5742C42.3 35.5691 42.3661 35.5854 42.42 35.6199Z" fill="#EE0033"/>
</g>
<defs>
<filter id="filter0_d_190_1473" x="0" y="0" width="76" height="70.2808" filterUnits="userSpaceOnUse" color-interpolation-filters="sRGB">
<feFlood flood-opacity="0" result="BackgroundImageFix"/>
<feColorMatrix in="SourceAlpha" type="matrix" values="0 0 0 0 0 0 0 0 0 0 0 0 0 0 0 0 0 0 127 0" result="hardAlpha"/>
<feOffset dy="2"/>
<feGaussianBlur stdDeviation="6"/>
<feColorMatrix type="matrix" values="0 0 0 0 0.933333 0 0 0 0 0 0 0 0 0 0.2 0 0 0 0.161 0"/>
<feBlend mode="normal" in2="BackgroundImageFix" result="effect1_dropShadow_190_1473"/>
<feBlend mode="normal" in="SourceGraphic" in2="effect1_dropShadow_190_1473" result="shape"/>
</filter>
<clipPath id="clip0_190_1473">
<rect width="37.645" height="24.1229" fill="white" transform="translate(19 22.46)"/>
</clipPath>
</defs>
</svg>
