<svg width="67" height="94" viewBox="0 0 67 94" fill="none" xmlns="http://www.w3.org/2000/svg">
<path fill-rule="evenodd" clip-rule="evenodd" d="M64.7201 0.943101C67.9102 3.54575 67.9102 8.95685 63.7166 20.1634C58.4034 34.3131 45.8535 48.0804 39.5604 54.5824C32.4834 61.8913 18.7795 71.6426 13.1251 68.2058C7.92624 65.0258 11.6045 55.4913 11.9402 54.4804C14.7964 45.8402 22.3924 34.661 23.4575 27.139C24.579 18.9722 21.9369 16.9141 19.7503 15.7704C18.4129 15.0692 11.9093 13.0384 6.5925 23.9444C1.27567 34.8504 6.07533 46.6889 6.07533 46.6889C3.80219 41.9282 2.76355 36.6685 3.05575 31.3975C3.34794 26.1265 4.96151 21.015 7.7468 16.5368C10.5321 12.0586 14.3989 8.35884 18.9887 5.78059C23.5785 3.20234 28.7427 1.82909 34.0023 1.78819C39.1507 1.78548 44.2175 3.07925 48.7388 5.55101C48.7388 5.55101 60.1636 -2.73958 64.7201 0.943101ZM61.5935 4.15225C58.6756 0.961314 50.6459 6.68204 50.6459 6.68204C54.3223 9.05411 57.4591 12.1776 59.8515 15.8487C59.8515 15.8487 64.3245 7.16469 61.5935 4.15225ZM6.13884 93.6932L0 81.2464H3.19009L7.58872 89.9996H7.63953L11.7533 81.2464H14.9615L9.01682 93.6932H6.13884Z" fill="#1265B6"/>
</svg>
