<svg width="24" height="24" viewBox="0 0 24 24" fill="none" xmlns="http://www.w3.org/2000/svg">
<path d="M8.91006 20.6695C8.72006 20.6695 8.53006 20.5995 8.38006 20.4495C8.24058 20.3084 8.16235 20.118 8.16235 19.9195C8.16235 19.7211 8.24058 19.5307 8.38006 19.3895L14.9001 12.8695C15.3801 12.3895 15.3801 11.6095 14.9001 11.1295L8.38006 4.60953C8.24058 4.46839 8.16235 4.27796 8.16235 4.07953C8.16235 3.8811 8.24058 3.69067 8.38006 3.54953C8.67006 3.25953 9.15005 3.25953 9.44005 3.54953L15.9601 10.0695C16.4701 10.5795 16.7601 11.2695 16.7601 11.9995C16.7601 12.7295 16.4801 13.4195 15.9601 13.9295L9.44005 20.4495C9.29005 20.5895 9.10006 20.6695 8.91006 20.6695Z" fill="#EE0033"/>
</svg>
