<svg width="31" height="31" viewBox="0 0 31 31" fill="none" xmlns="http://www.w3.org/2000/svg">
<g clip-path="url(#clip0_270_577)">
<path d="M15.3338 11.6528L18.8377 20.411L15.3338 29.1815L12.0825 30.0915L10.1765 27.3046L7.10135 25.912L7.43254 22.5517L5.97217 19.5081L8.38553 17.1474L9.22349 13.8767L12.5899 13.6194L15.3338 11.6528Z" fill="#FFEA80"/>
<path d="M23.235 22.5517L23.5662 25.912L20.4911 27.3046L18.5851 30.0915L15.3337 29.1815V11.6528L18.0777 13.6194L21.444 13.8767L22.282 17.1474L24.6954 19.5081L23.235 22.5517Z" fill="#FFC34D"/>
<path d="M14.9899 18.291L14.7641 19.6533C14.9536 19.6381 15.1437 19.6322 15.3338 19.6357L15.9733 20.4668L15.3338 21.4527C14.7148 21.4368 14.3989 21.5381 14.0545 21.7058C13.7493 21.8656 13.3824 21.8384 13.1027 21.6362C12.8236 21.4339 12.6849 21.0906 12.7412 20.7504L13.3237 17.2345C13.3964 16.7961 13.7754 16.4746 14.2198 16.4746H15.3338L16.2594 17.3828L15.3338 18.291H14.9899ZM15.3338 24.4195L16.2594 25.0791L15.3338 26.2371C13.9109 26.2666 12.6257 25.3812 12.1515 24.0356C11.9844 23.5627 12.2321 23.0439 12.7055 22.8767C13.1784 22.7096 13.6973 22.9573 13.8644 23.4301C14.0813 24.0472 14.6807 24.4526 15.3338 24.4195Z" fill="#624D8C"/>
<path d="M15.3337 1.81638L16.2592 0.891056L15.3337 0C13.6063 0 12.2004 1.40527 12.2004 3.13326V5.52483C12.2004 7.25281 13.6063 8.65808 15.3337 8.65808L16.0555 7.48337L15.3337 6.8417C14.6077 6.8417 14.0168 6.25138 14.0168 5.52483V3.13326C14.0168 2.40671 14.6077 1.81638 15.3337 1.81638ZM10.0232 0H6.24486C5.7433 0 5.33667 0.406627 5.33667 0.908191C5.33667 1.40975 5.7433 1.81638 6.24486 1.81638H7.2182V7.74989C7.2182 8.25146 7.62483 8.65808 8.12639 8.65808C8.62795 8.65808 9.03458 8.25146 9.03458 7.74989V1.81638H10.0232C10.5248 1.81638 10.9314 1.40975 10.9314 0.908191C10.9314 0.406627 10.5248 0 10.0232 0Z" fill="#FF4D88"/>
<path d="M23.0594 0.000156425H21.1544C20.6664 -0.00940985 20.2378 0.421194 20.2462 0.908347V7.75005C20.2462 8.25161 20.6528 8.65824 21.1544 8.65824C21.656 8.65824 22.0626 8.25161 22.0626 7.75005V5.68149C22.4322 5.67962 22.8281 5.67798 23.0594 5.67798C24.6457 5.67798 25.9362 4.40446 25.9362 2.83904C25.9362 1.27362 24.6457 0.000156425 23.0594 0.000156425ZM23.0594 3.8616C22.8289 3.8616 22.4381 3.86318 22.0709 3.86505C22.069 3.4841 22.0664 2.21481 22.0653 1.81654H23.0594C23.6342 1.81654 24.1198 2.2848 24.1198 2.8391C24.1198 3.3934 23.6342 3.8616 23.0594 3.8616Z" fill="#E62E6B"/>
<path d="M9.26523 17.3726L9.94153 14.7328L12.6588 14.5251C12.8247 14.5124 12.984 14.4543 13.119 14.3574L15.3338 12.7699L16.2593 12.0167L15.3338 10.7446C15.1485 10.7446 14.9632 10.8009 14.8046 10.9142L12.2671 12.7336L9.15443 12.9709C8.76633 13.0006 8.43998 13.2742 8.34372 13.6514L7.56873 16.6757L5.337 18.8584C5.05849 19.1309 4.98462 19.5498 5.15354 19.901L6.50372 22.7158L6.19736 25.8224C6.15921 26.2099 6.37173 26.5786 6.72653 26.7391L9.57038 28.0269L11.3329 30.6043C11.5527 30.9252 11.9523 31.0711 12.327 30.9664L15.3338 30.1248L16.2593 29.3936L15.3338 28.2733C15.2514 28.2733 15.1691 28.2848 15.0892 28.3072L12.4645 29.0416L10.9266 26.7918C10.8328 26.6549 10.7026 26.5459 10.5512 26.4775L8.06884 25.3532L8.33645 22.6407C8.3528 22.4754 8.32313 22.3089 8.25169 22.1588L7.07225 19.7018L9.02062 17.7964C9.13929 17.6802 9.22406 17.5337 9.26523 17.3726Z" fill="#FFC34D"/>
<path d="M25.514 19.901L24.1638 22.7158L24.4701 25.8224C24.5083 26.2099 24.2958 26.5786 23.941 26.7391L21.0971 28.0269L19.3346 30.6043C19.2512 30.7262 19.1394 30.8259 19.0088 30.8948C18.8782 30.9636 18.7327 30.9997 18.5851 30.9997C18.5033 30.9997 18.4216 30.9888 18.3405 30.9664L15.3337 30.1248V28.2733C15.4161 28.2733 15.4984 28.2848 15.5783 28.3072L18.203 29.0416L19.7409 26.7918C19.8347 26.6549 19.9649 26.5459 20.1163 26.4775L22.5987 25.3532L22.331 22.6407C22.3147 22.4754 22.3444 22.3089 22.4158 22.1588L23.5952 19.7018L21.6469 17.7964C21.5281 17.6802 21.4435 17.5336 21.4023 17.3726L20.726 14.7328L18.0087 14.5251C17.8428 14.5124 17.6835 14.4543 17.5485 14.3574L15.3337 12.7699V10.7446C15.519 10.7446 15.7043 10.8009 15.8629 10.9142L18.4004 12.7336L21.5131 12.9709C21.9012 13.0006 22.2275 13.2742 22.3238 13.6514L23.0988 16.6757L25.3305 18.8584C25.609 19.1309 25.6829 19.5498 25.514 19.901Z" fill="#FFA64D"/>
<path d="M18.068 17.3828C18.068 17.8847 17.6611 18.291 17.1598 18.291H15.3337V16.4746H17.1598C17.6611 16.4746 18.068 16.8815 18.068 17.3828ZM18.5633 23.1105C18.4743 24.8288 17.0563 26.2019 15.3343 26.2371H15.3337V24.4195C16.0918 24.3862 16.71 23.7765 16.7493 23.0166C16.7711 22.6037 16.627 22.2126 16.3436 21.9141C16.076 21.6319 15.7194 21.4691 15.3337 21.4527V19.6357C16.2111 19.6533 17.0557 20.0262 17.6611 20.6638C18.2908 21.3268 18.6111 22.1962 18.5633 23.1105Z" fill="#3D2866"/>
<path d="M18.467 3.13326V5.52483C18.467 7.25281 17.0611 8.65808 15.3337 8.65808V6.8417C16.0597 6.8417 16.6506 6.25138 16.6506 5.52483V3.13326C16.6506 2.40671 16.0597 1.81638 15.3337 1.81638V0C17.0611 0 18.467 1.40527 18.467 3.13326Z" fill="#E62E6B"/>
</g>
<defs>
<clipPath id="clip0_270_577">
<rect width="31" height="31" fill="white"/>
</clipPath>
</defs>
</svg>
