<svg width="14" height="13" viewBox="0 0 14 13" fill="none" xmlns="http://www.w3.org/2000/svg">
<path fill-rule="evenodd" clip-rule="evenodd" d="M8.47483 0.228028C9.22095 0.216513 9.96357 0.332658 10.6708 0.57149C11.2358 0.763226 11.7545 1.07169 12.1934 1.47699C12.5775 1.83182 12.8734 2.27222 13.0571 2.76272C13.4141 3.72535 13.4141 4.78478 13.0571 5.7474C12.875 6.236 12.5832 6.67592 12.2043 7.03311C11.7606 7.43756 11.2386 7.7458 10.6708 7.93861C9.939 8.18544 9.16976 8.30168 8.39798 8.28207H3.37652V12.7729H0.227125V0.228028H8.47483ZM7.54155 6.14779C7.88926 6.14781 8.23654 6.1239 8.58097 6.07618C8.88788 6.03757 9.18575 5.94557 9.4612 5.80433C9.70877 5.66702 9.91727 5.46851 10.0669 5.2276C10.2153 4.92567 10.2924 4.59353 10.2924 4.25688C10.2924 3.92024 10.2153 3.5881 10.0669 3.28617C9.91814 3.0455 9.70935 2.84797 9.4612 2.71312C9.18637 2.57033 8.88823 2.47827 8.58097 2.44129C8.23676 2.3912 7.88936 2.36663 7.54155 2.3678H3.37652V6.14779H7.54155Z" fill="#1265B6" stroke="#1E82C8" stroke-width="0.45"/>
</svg>
