<svg width="99" height="99" viewBox="0 0 99 99" fill="none" xmlns="http://www.w3.org/2000/svg">
<g clip-path="url(#clip0_19_132)">
<path d="M96.7216 0H13.0914C12.6474 0 12.2108 0.175764 11.9258 0.515883C11.3028 1.25935 11.5801 2.32031 12.3458 2.73255L31.8519 13.2358C31.8538 13.2368 31.8551 13.2387 31.8555 13.2411L36.3972 43.5175C36.5598 44.5664 37.8054 45.1042 38.6757 44.4864L57.7257 30.9508C57.7268 30.9501 57.728 30.9496 57.7294 30.9496C57.7307 30.9495 57.732 30.9498 57.7332 30.9505L71.233 38.3753C71.8769 38.7291 72.7068 38.5346 73.126 37.9317L87.3205 17.5273C87.5343 17.2107 87.6149 16.8227 87.5448 16.4472C87.4748 16.0717 87.2597 15.7389 86.9461 15.5207C86.6325 15.3026 86.2456 15.2167 85.8692 15.2816C85.4928 15.3465 85.157 15.5571 84.9346 15.8677L71.4909 35.1933C71.4899 35.1948 71.4885 35.1958 71.4868 35.1962C71.4851 35.1965 71.4833 35.1963 71.4818 35.1955L44.5596 20.3884C44.5542 20.3855 44.555 20.3776 44.5608 20.3754L93.0205 4.2222C93.0269 4.22007 93.0323 4.22742 93.0284 4.23283L89.0108 10.0079C88.5539 10.6645 88.6603 11.5915 89.3053 12.0645C89.4616 12.1792 89.6394 12.2615 89.828 12.3066C90.0167 12.3516 90.2124 12.3583 90.4037 12.3265C90.5951 12.2947 90.7781 12.2249 90.942 12.1213C91.1059 12.0176 91.2474 11.8822 91.3582 11.723L97.9255 2.2828C97.9665 2.22344 98.0036 2.15905 98.0355 2.09389C98.5073 1.13637 97.7801 0 96.7216 0ZM54.8912 29.3873C54.8922 29.3879 54.8931 29.3888 54.8937 29.3898C54.8943 29.3908 54.8947 29.392 54.8947 29.3932C54.8948 29.3944 54.8946 29.3956 54.8941 29.3966C54.8935 29.3977 54.8928 29.3986 54.8918 29.3993L39.7289 40.1727C39.7278 40.1735 39.7265 40.1739 39.7251 40.1739C39.7238 40.1739 39.7224 40.1735 39.7213 40.1728C39.7201 40.1721 39.7192 40.1711 39.7186 40.1699C39.718 40.1687 39.7178 40.1673 39.7179 40.166L42.0922 22.3589C42.0927 22.3541 42.0982 22.3514 42.1026 22.3537L54.8912 29.3873ZM78.1587 6.11267L40.4743 18.6741C39.9548 18.8481 39.5659 19.3168 39.4934 19.8605L37.7557 32.8928C37.7545 32.9009 37.7429 32.9009 37.7418 32.8929L34.8333 13.5023C34.8331 13.5014 34.8331 13.5005 34.8333 13.4996C34.8335 13.4987 34.8339 13.4978 34.8345 13.4971C34.835 13.4963 34.8357 13.4957 34.8365 13.4952C34.8373 13.4948 34.8382 13.4945 34.8391 13.4944L78.1552 6.09894C78.1637 6.09739 78.1668 6.10977 78.1587 6.11267ZM79.5051 2.92011L33.4349 10.7858C33.4334 10.786 33.4318 10.7857 33.4304 10.785L18.8227 2.91953C18.8163 2.91605 18.8187 2.90619 18.826 2.90619H79.5039C79.5126 2.90619 79.5136 2.91876 79.5051 2.92011ZM26.9019 58.1548C26.4903 58.1609 26.079 58.1774 25.6682 58.2041C25.2878 58.2345 24.9346 58.4132 24.6849 58.7018C24.4352 58.9904 24.309 59.3656 24.3337 59.7464C24.3583 60.1273 24.5317 60.4831 24.8164 60.7372C25.1012 60.9912 25.4744 61.1231 25.8556 61.1043C26.2189 61.0809 26.5855 61.0662 26.9454 61.0608C27.7478 61.0488 28.3886 60.3885 28.3766 59.5862C28.3646 58.784 27.7004 58.1383 26.9019 58.1548ZM34.0428 59.1792C33.2716 58.9301 32.4862 58.7274 31.6908 58.5722C31.3149 58.5038 30.9272 58.5861 30.6116 58.8014C30.2959 59.0166 30.0777 59.3476 30.0043 59.7225C29.9308 60.0974 30.0079 60.4862 30.2189 60.8047C30.4299 61.1232 30.7579 61.3458 31.1318 61.4243C31.8129 61.5571 32.4854 61.7305 33.1458 61.9436C33.8995 62.1879 34.7319 61.7632 34.9765 61.0101C35.0954 60.6435 35.0638 60.2447 34.8887 59.9013C34.7136 59.558 34.4094 59.2983 34.0428 59.1792ZM18.9136 72.6277C18.7992 71.9564 18.734 71.2775 18.7185 70.5967C18.6999 69.7942 18.0325 69.16 17.2321 69.1776C17.0414 69.182 16.8533 69.224 16.6788 69.3011C16.5042 69.3782 16.3465 69.4889 16.2148 69.6269C16.083 69.7649 15.9797 69.9275 15.9108 70.1055C15.8419 70.2834 15.8087 70.4732 15.8131 70.664C15.8319 71.4869 15.9108 72.3073 16.0492 73.1187C16.1828 73.8987 16.9462 74.4395 17.7268 74.3051C17.9148 74.2729 18.0947 74.204 18.2562 74.1023C18.4176 74.0006 18.5574 73.868 18.6677 73.7123C18.7779 73.5565 18.8563 73.3806 18.8985 73.1945C18.9407 73.0084 18.9458 72.8158 18.9136 72.6277ZM26.0025 81.6017C25.3844 81.3821 24.7896 81.1017 24.2269 80.7645C23.8962 80.5666 23.5004 80.5081 23.1266 80.6019C22.7528 80.6958 22.4316 80.9342 22.2336 81.2649C22.0357 81.5956 21.9772 81.9914 22.071 82.3652C22.1649 82.739 22.4033 83.0602 22.734 83.2582C23.4621 83.6941 24.2315 84.0567 25.0311 84.3409C25.8177 84.6197 26.699 84.1572 26.9187 83.3536C27.1167 82.6294 26.7095 81.8525 26.0025 81.6017ZM27.889 52.5394C27.6494 52.2376 27.2997 52.0433 26.9169 51.9992C26.534 51.9552 26.1494 52.065 25.8475 52.3045C25.2283 52.7957 24.629 53.3114 24.0508 53.8502C23.7688 54.1129 23.6027 54.4768 23.5891 54.8619C23.5754 55.2471 23.7153 55.6218 23.9779 55.9039C24.5172 56.483 25.452 56.5162 26.0314 55.9766C26.5536 55.4902 27.0949 55.0247 27.654 54.5811C27.9559 54.3415 28.1502 53.9918 28.1943 53.6089C28.2384 53.226 28.1285 52.8413 27.889 52.5394ZM21.2857 78.1346C20.877 77.6049 20.5144 77.0411 20.202 76.4495C20.0199 76.1122 19.7119 75.8605 19.3451 75.7492C18.9783 75.6379 18.5824 75.6761 18.2436 75.8554C17.9048 76.0347 17.6506 76.3406 17.5363 76.7064C17.422 77.0723 17.4569 77.4685 17.6334 77.8088C18.0237 78.5473 18.4765 79.2511 18.9869 79.9123C19.5093 80.5881 20.5334 80.6612 21.1479 80.067C21.6728 79.5591 21.7324 78.712 21.2857 78.1346ZM19.1062 62.6989C18.7516 62.5479 18.3516 62.5438 17.9941 62.6877C17.6366 62.8316 17.3509 63.1116 17.1999 63.4662C16.853 64.2798 16.5695 65.0807 16.3794 65.7816C16.321 65.9972 16.313 66.2233 16.3561 66.4424C16.3992 66.6615 16.4922 66.8678 16.6279 67.0451C16.7636 67.2225 16.9383 67.3662 17.1386 67.465C17.3388 67.5639 17.5591 67.6153 17.7824 67.6153C18.1014 67.615 18.4115 67.5098 18.6648 67.3158C18.918 67.1219 19.1005 66.85 19.1839 66.5421C19.2926 66.1417 19.5002 65.4806 19.8732 64.605C19.9481 64.4295 19.9877 64.241 19.9896 64.0502C19.9916 63.8594 19.9559 63.67 19.8847 63.493C19.8135 63.316 19.708 63.1548 19.5745 63.0185C19.4409 62.8822 19.2818 62.7736 19.1062 62.6989ZM22.8898 57.0911C22.7394 56.9737 22.5672 56.8872 22.3833 56.8363C22.1994 56.7855 22.0072 56.7714 21.8178 56.7949C21.6285 56.8183 21.4455 56.8788 21.2796 56.973C21.1136 57.0672 20.9678 57.1931 20.8505 57.3436C20.3638 57.9676 19.9026 58.611 19.4678 59.2722C19.3629 59.4316 19.2905 59.6102 19.2546 59.7976C19.2187 59.985 19.2201 60.1777 19.2588 60.3646C19.2974 60.5514 19.3724 60.7289 19.4796 60.8868C19.5868 61.0446 19.724 61.1798 19.8835 61.2847C20.5455 61.7201 21.4609 61.5302 21.896 60.869C22.288 60.2731 22.7038 59.6933 23.1424 59.1309C23.3793 58.8269 23.4858 58.4412 23.4385 58.0587C23.3911 57.6762 23.1938 57.3281 22.8898 57.0911ZM40.3941 62.9907C39.8235 62.3984 39.1755 61.8462 38.4682 61.3493C38.3121 61.2395 38.1359 61.1616 37.9496 61.12C37.7634 61.0784 37.5708 61.0739 37.3828 61.1067C37.1948 61.1395 37.0152 61.2091 36.8541 61.3114C36.693 61.4137 36.5536 61.5467 36.4439 61.7029C36.2224 62.0182 36.1352 62.4087 36.2015 62.7883C36.2679 63.1679 36.4823 63.5057 36.7976 63.7272C37.3533 64.1176 37.8591 64.5482 38.301 65.007C38.8505 65.5773 39.7852 65.5947 40.3556 65.0453C40.6331 64.7779 40.7931 64.4113 40.8003 64.026C40.8075 63.6407 40.6614 63.2683 40.3941 62.9907ZM33.6064 83.0117C33.5664 82.8251 33.4901 82.6482 33.3817 82.4911C33.2734 82.334 33.1352 82.1998 32.9749 82.0962C32.8147 81.9925 32.6357 81.9214 32.448 81.887C32.2603 81.8525 32.0676 81.8554 31.8811 81.8954C31.2591 82.0274 30.6281 82.1128 29.9935 82.1509L29.8806 82.1572C29.69 82.1667 29.5031 82.2136 29.3306 82.2953C29.1582 82.377 29.0035 82.4918 28.8754 82.6333C28.6167 82.919 28.4821 83.2957 28.5012 83.6806C28.5203 84.0656 28.6916 84.4271 28.9772 84.6858C29.2629 84.9445 29.6397 85.0791 30.0246 85.06L30.1727 85.0516C30.952 85.0049 31.7267 84.8998 32.4903 84.7374C32.8671 84.6565 33.1964 84.4293 33.4057 84.1057C33.615 83.782 33.6872 83.3885 33.6064 83.0117ZM43.5155 69.9296C43.4465 69.0488 43.2854 68.1973 43.0365 67.3985C42.9798 67.2163 42.8876 67.0471 42.7655 66.9005C42.6433 66.7539 42.4934 66.6328 42.3245 66.5441C42.1555 66.4555 41.9707 66.4009 41.7807 66.3837C41.5906 66.3664 41.399 66.3867 41.2168 66.4435C41.0346 66.5003 40.8654 66.5924 40.7188 66.7146C40.5722 66.8367 40.4511 66.9866 40.3625 67.1556C40.2738 67.3245 40.2192 67.5093 40.202 67.6994C40.1847 67.8894 40.205 68.081 40.2618 68.2632C40.4463 68.8547 40.566 69.4916 40.618 70.156C40.6797 70.9455 41.3905 71.5532 42.18 71.4915C42.9692 71.4297 43.5772 70.7191 43.5155 69.9296ZM41.9858 73.1096C41.6162 73.0004 41.2184 73.0426 40.8798 73.2267C40.5413 73.4108 40.2897 73.7219 40.1804 74.0914C39.9905 74.734 39.7465 75.3593 39.4509 75.9607C39.3666 76.1319 39.3169 76.318 39.3046 76.5084C39.2923 76.6989 39.3176 76.8899 39.3791 77.0705C39.4406 77.2511 39.5371 77.4179 39.6631 77.5612C39.7891 77.7045 39.9421 77.8217 40.1133 77.9059C40.8241 78.2558 41.7091 77.9536 42.0585 77.2434C42.4269 76.4942 42.731 75.7152 42.9677 74.9146C43.0218 74.7316 43.0392 74.5397 43.0191 74.35C42.9991 74.1603 42.9418 73.9763 42.8506 73.8087C42.7594 73.6411 42.6361 73.4931 42.4877 73.3731C42.3394 73.2532 42.1688 73.1636 41.9858 73.1096ZM33.8069 49.2742C33.7258 49.1014 33.6115 48.9464 33.4704 48.8178C33.3294 48.6893 33.1644 48.5898 32.9849 48.525C32.8054 48.4603 32.6149 48.4315 32.4242 48.4404C32.2336 48.4492 32.0466 48.4956 31.8739 48.5767C31.1603 48.9118 30.4595 49.2737 29.7732 49.6617C29.2299 49.9689 28.9389 50.6095 29.0655 51.2209C29.2036 51.8884 29.8086 52.3799 30.49 52.3799C30.7404 52.3799 30.9864 52.3149 31.2041 52.1914C31.8266 51.8395 32.4622 51.5112 33.1095 51.2072C33.2822 51.126 33.4372 51.0117 33.5658 50.8706C33.6943 50.7296 33.7938 50.5646 33.8585 50.3851C33.9233 50.2056 33.9521 50.0151 33.9432 49.8245C33.9344 49.6339 33.888 49.4469 33.8069 49.2742ZM39.1579 79.2228C38.8926 78.9434 38.5271 78.7808 38.1418 78.7708C37.7566 78.7608 37.3832 78.9043 37.1037 79.1696C36.6237 79.6254 36.1024 80.0356 35.5466 80.395C35.3862 80.4985 35.2479 80.6325 35.1394 80.7895C35.0309 80.9465 34.9544 81.1233 34.9142 81.3099C34.874 81.4964 34.871 81.6891 34.9053 81.8768C34.9396 82.0645 35.0105 82.2437 35.114 82.404C35.5431 83.0689 36.4575 83.2664 37.123 82.8365C37.8305 82.3792 38.494 81.8572 39.105 81.2771C39.3844 81.0117 39.5469 80.6462 39.5569 80.2609C39.5668 79.8757 39.4233 79.5023 39.1579 79.2228ZM39.2378 47.5765C39.0307 46.8015 38.2341 46.3413 37.4589 46.5478C37.0682 46.6523 36.6793 46.7633 36.2924 46.881C35.5644 47.1029 35.1243 47.8768 35.3047 48.616C35.5 49.4159 36.3519 49.9006 37.1398 49.6609C37.4898 49.5541 37.8493 49.4515 38.2089 49.3554C38.5812 49.2558 38.8987 49.0125 39.0917 48.6789C39.2846 48.3453 39.3372 47.9488 39.2378 47.5765ZM6.57611 96.8841C6.40725 96.557 6.24499 96.2265 6.08942 95.8929C5.92212 95.5509 5.6273 95.2883 5.26836 95.1614C4.90942 95.0345 4.51501 95.0535 4.16995 95.2144C3.82489 95.3752 3.55673 95.665 3.42312 96.0215C3.28951 96.378 3.30113 96.7727 3.45548 97.1208C3.62641 97.4874 3.80739 97.8561 3.9936 98.2167C4.35673 98.9202 5.24676 99.205 5.95117 98.8416C6.12075 98.7542 6.27144 98.6341 6.39463 98.4884C6.51781 98.3427 6.61108 98.1741 6.66912 97.9923C6.72715 97.8105 6.7488 97.6191 6.73284 97.4289C6.71689 97.2388 6.66363 97.0536 6.57611 96.8841ZM4.64793 92.0366C4.46077 91.3777 4.30124 90.7113 4.16975 90.0392C4.09383 89.6629 3.87215 89.332 3.55309 89.1186C3.23403 88.9053 2.84352 88.8268 2.46682 88.9004C2.09012 88.974 1.75782 89.1936 1.54249 89.5113C1.32716 89.8291 1.24628 90.2191 1.3175 90.5962C1.4645 91.3482 1.64293 92.0937 1.85234 92.8307C2.06851 93.5921 2.88526 94.0483 3.6471 93.8313C3.83069 93.7792 4.00221 93.6915 4.15187 93.5731C4.30154 93.4547 4.42641 93.308 4.51935 93.1413C4.61229 92.9746 4.67148 92.7913 4.69355 92.6017C4.71561 92.4122 4.70011 92.2201 4.64793 92.0366ZM2.41559 82.3699C1.61624 82.3204 0.924211 82.9268 0.872971 83.7275C0.836514 84.2991 0.8182 84.8716 0.818057 85.4444C0.818057 85.967 0.799108 86.4753 1.14367 86.9044C1.42347 87.2527 1.86026 87.4595 2.30828 87.4478C2.52885 87.4423 2.74533 87.387 2.94149 87.286C3.13766 87.185 3.30842 87.041 3.44098 86.8646C3.76331 86.4336 3.72425 85.9544 3.72425 85.4442C3.72425 84.9362 3.74068 84.4209 3.77317 83.9126C3.79769 83.528 3.66845 83.1494 3.41385 82.8601C3.15926 82.5708 2.80018 82.3945 2.41559 82.3699ZM3.99379 76.0419C3.8122 75.9832 3.62082 75.9608 3.4306 75.9761C3.24037 75.9914 3.05503 76.0441 2.88515 76.1311C2.71528 76.218 2.56421 76.3376 2.44058 76.483C2.31694 76.6284 2.22317 76.7967 2.16461 76.9783C1.92966 77.7062 1.72433 78.4434 1.54915 79.188C1.50546 79.3737 1.49879 79.5663 1.52952 79.7546C1.56025 79.9429 1.62777 80.1233 1.72824 80.2855C1.8287 80.4477 1.96013 80.5886 2.11503 80.7C2.26992 80.8114 2.44525 80.8912 2.63099 80.9348C3.40192 81.1162 4.19682 80.6235 4.378 79.853C4.53539 79.1852 4.71962 78.5241 4.93023 77.8712C4.98887 77.6896 5.01117 77.4983 4.99585 77.308C4.98052 77.1178 4.92788 76.9325 4.84092 76.7626C4.75396 76.5927 4.63439 76.4416 4.48904 76.318C4.34369 76.1943 4.1754 76.1005 3.99379 76.0419ZM11.4043 65.4305C11.1382 65.1516 10.7723 64.9899 10.387 64.9808C10.0017 64.9717 9.62853 65.1161 9.34965 65.3822C8.7927 65.9132 8.26022 66.4693 7.75386 67.0487C7.50024 67.3389 7.37225 67.7179 7.39803 68.1024C7.42381 68.4869 7.60125 68.8454 7.89134 69.0991C8.48727 69.6202 9.42081 69.5576 9.94172 68.9616C10.3904 68.4483 10.8623 67.9556 11.3558 67.4851C11.6346 67.2191 11.7964 66.8532 11.8055 66.4679C11.8146 66.0826 11.6703 65.7094 11.4043 65.4305ZM7.03514 70.2712C6.70682 70.0695 6.31184 70.0064 5.93701 70.0958C5.56218 70.1852 5.23817 70.4197 5.03619 70.7479C4.63612 71.399 4.26194 72.0657 3.91451 72.7464C3.8278 72.9164 3.77542 73.1018 3.76037 73.2921C3.74533 73.4823 3.7679 73.6736 3.82682 73.8551C3.88573 74.0366 3.97983 74.2047 4.10373 74.3499C4.22763 74.495 4.37891 74.6143 4.54893 74.7009C5.25507 75.0611 6.14395 74.7717 6.5034 74.0665C6.81554 73.4546 7.15186 72.8554 7.51158 72.2702C7.61157 72.1077 7.67856 71.927 7.70874 71.7386C7.73891 71.5502 7.73166 71.3577 7.68742 71.172C7.64318 70.9864 7.5628 70.8113 7.45088 70.6568C7.33896 70.5022 7.19769 70.3712 7.03514 70.2712ZM15.9819 62.3536C15.7842 62.0228 15.4632 61.7841 15.0896 61.6899C14.7159 61.5958 14.3202 61.6538 13.9893 61.8514C13.6371 62.0618 13.2899 62.2805 12.9481 62.5073C12.627 62.7204 12.4037 63.0523 12.3273 63.43C12.2509 63.8078 12.3276 64.2004 12.5407 64.5215C12.9782 65.1811 13.8946 65.3669 14.5549 64.9289C14.8585 64.7275 15.1669 64.5332 15.4797 64.3463C15.6435 64.2485 15.7865 64.1193 15.9004 63.9662C16.0143 63.813 16.0969 63.639 16.1435 63.454C16.1902 63.2689 16.1999 63.0765 16.1722 62.8877C16.1444 62.6989 16.0798 62.5174 15.9819 62.3536Z" fill="#707070"/>
</g>
<defs>
<clipPath id="clip0_19_132">
<rect width="99" height="99" fill="white"/>
</clipPath>
</defs>
</svg>
