<svg width="24" height="24" viewBox="0 0 24 24" fill="none" xmlns="http://www.w3.org/2000/svg">
<path d="M12 7.19986C11.3 7.19986 10.6 7.46986 10.07 7.99986L3.54998 14.5199C3.4105 14.661 3.33228 14.8514 3.33228 15.0499C3.33228 15.2483 3.4105 15.4387 3.54998 15.5799C3.83998 15.8699 4.31998 15.8699 4.60998 15.5799L11.13 9.05986C11.61 8.57986 12.39 8.57986 12.87 9.05986L19.39 15.5799C19.68 15.8699 20.16 15.8699 20.45 15.5799C20.74 15.2899 20.74 14.8099 20.45 14.5199L13.93 7.99986C13.4 7.46986 12.7 7.19986 12 7.19986Z" fill="black"/>
</svg>
