<svg width="17" height="13" viewBox="0 0 17 13" fill="none" xmlns="http://www.w3.org/2000/svg">
<path d="M5.34678 12.8548C6.65244 12.8632 7.94688 12.63 9.15489 12.1689C10.3629 11.7077 11.4604 11.0278 12.3837 10.1685C13.307 9.30928 14.0376 8.28786 14.5331 7.1636C15.0286 6.03935 15.2791 4.83467 15.2701 3.61954C15.2701 3.47876 15.267 3.33895 15.2608 3.2001C15.9431 2.7404 16.532 2.1713 17 1.51946C16.3637 1.78223 15.6887 1.95464 14.9974 2.03092C15.7255 1.62506 16.2704 0.986831 16.5306 0.235011C15.8458 0.612883 15.0967 0.879216 14.3157 1.02254C13.7898 0.502381 13.0944 0.157995 12.337 0.0426517C11.5797 -0.0726914 10.8026 0.047437 10.126 0.384454C9.44934 0.721471 8.9109 1.2566 8.59394 1.90705C8.27697 2.5575 8.19914 3.28703 8.37249 3.98279C6.98577 3.9183 5.62911 3.58314 4.39059 2.99906C3.15207 2.41498 2.05937 1.59503 1.18343 0.592449C0.737683 1.3071 0.601284 2.15298 0.801995 2.95792C1.00271 3.76286 1.52544 4.46638 2.26382 4.9253C1.70983 4.90971 1.16797 4.77051 0.68383 4.51943C0.68383 4.53299 0.68383 4.54655 0.68383 4.56108C0.683007 5.31115 0.96124 6.03835 1.47126 6.61913C1.98128 7.19991 2.69162 7.59845 3.4816 7.74703C2.9681 7.87717 2.42938 7.89606 1.90681 7.80224C2.1297 8.44708 2.56352 9.01098 3.14762 9.41512C3.73173 9.81926 4.43692 10.0434 5.16463 10.0563C3.92869 10.9577 2.40288 11.4459 0.83267 11.4425C0.554415 11.4428 0.27638 11.4279 0 11.3979C1.59463 12.3513 3.45041 12.8574 5.34574 12.8558" fill="black"/>
</svg>
