<svg width="25" height="17" viewBox="0 0 25 17" fill="none" xmlns="http://www.w3.org/2000/svg">
<path d="M15.7859 16.8541C15.5291 16.8541 15.2724 16.7676 15.0696 16.5822C14.8811 16.4077 14.7754 16.1724 14.7754 15.9272C14.7754 15.6819 14.8811 15.4466 15.0696 15.2722L22.5571 8.42549L15.0696 1.57881C14.8811 1.40439 14.7754 1.16904 14.7754 0.923806C14.7754 0.678574 14.8811 0.443227 15.0696 0.2688C15.4616 -0.0895999 16.1103 -0.0895999 16.5023 0.2688L24.7061 7.77048C25.098 8.12888 25.098 8.72209 24.7061 9.08049L16.5023 16.5822C16.2995 16.7676 16.0427 16.8541 15.7859 16.8541Z" fill="#EE0033"/>
<path d="M23.76 9.35322H1.01365C0.459522 9.35322 0 8.93303 0 8.42633C0 7.91962 0.459522 7.49943 1.01365 7.49943H23.76C24.3141 7.49943 24.7736 7.91962 24.7736 8.42633C24.7736 8.93303 24.3141 9.35322 23.76 9.35322Z" fill="#EE0033"/>
</svg>
