<svg width="76" height="76" viewBox="0 0 76 76" fill="none" xmlns="http://www.w3.org/2000/svg">
<g filter="url(#filter0_d_190_1587)">
<path d="M38 10C43.1423 10 48.1691 11.5249 52.4448 14.3818C56.7205 17.2387 60.053 21.2994 62.0209 26.0502C63.9887 30.8011 64.5036 36.0288 63.5004 41.0723C62.4972 46.1159 60.0209 50.7486 56.3848 54.3848C52.7486 58.0209 48.1159 60.4972 43.0723 61.5004C38.0288 62.5036 32.8011 61.9887 28.0502 60.0209C23.2994 58.053 19.2387 54.7205 16.3818 50.4448C13.5249 46.1691 12 41.1423 12 36C12 29.1044 14.7393 22.4912 19.6152 17.6152C24.4912 12.7393 31.1044 10 38 10Z" fill="white"/>
</g>
<mask id="mask0_190_1587" style="mask-type:luminance" maskUnits="userSpaceOnUse" x="28" y="26" width="20" height="20">
<path d="M28 26V46H48V26H28Z" fill="white"/>
</mask>
<g mask="url(#mask0_190_1587)">
<path d="M38.8498 26.847V45.153C38.8498 45.3778 38.7605 45.5933 38.6016 45.7523C38.4426 45.9112 38.2271 46.0005 38.0023 46.0005C37.7775 46.0005 37.5619 45.9112 37.403 45.7523C37.2441 45.5933 37.1548 45.3778 37.1548 45.153V26.847C37.1548 26.6222 37.2441 26.4067 37.403 26.2477C37.5619 26.0888 37.7775 25.9995 38.0023 25.9995C38.2271 25.9995 38.4426 26.0888 38.6016 26.2477C38.7605 26.4067 38.8498 26.6222 38.8498 26.847Z" fill="#EE0033"/>
<path d="M46.0118 34.0102C46.0122 34.1215 45.9906 34.2319 45.9482 34.3348C45.9058 34.4378 45.8435 34.5314 45.7648 34.6102C45.6049 34.768 45.3894 34.8564 45.1648 34.8564C44.9401 34.8564 44.7246 34.768 44.5648 34.6102L38.0018 28.0342L31.4388 34.6102C31.2779 34.7606 31.0649 34.8427 30.8446 34.839C30.6244 34.8354 30.4142 34.7462 30.2584 34.5905C30.1027 34.4347 30.0136 34.2245 30.0099 34.0043C30.0062 33.7841 30.0883 33.571 30.2388 33.4102L37.4018 26.2472C37.5616 26.0894 37.7771 26.0009 38.0018 26.0009C38.2264 26.0009 38.4419 26.0894 38.6018 26.2472L45.7648 33.4102C45.8435 33.4889 45.9058 33.5825 45.9482 33.6855C45.9906 33.7885 46.0122 33.8988 46.0118 34.0102Z" fill="#EE0033"/>
</g>
<g clip-path="url(#clip0_190_1587)">
<path d="M35.2151 46.5842C35.2151 46.5842 20.7651 47.7142 19.2831 42.6292C17.8011 37.5442 22.2471 28.8792 29.8431 26.0542C37.4391 23.2292 50.1651 22.8962 53.7431 27.7642C56.2941 31.1542 58.7431 42.2532 53.7431 45.0782C49.8531 46.7782 43.3271 46.5852 42.2571 46.5852C40.6731 46.5852 35.2171 51.1062 35.2171 51.1062L35.2151 46.5842Z" fill="#EE0033"/>
<path d="M37.316 44.2739C37.316 44.2739 25.623 45.1829 24.754 42.2009C23.885 39.2189 27.236 33.0239 31.691 31.3669C36.146 29.7099 47.043 29.7479 49.141 32.6029C50.641 34.5909 52.863 41.7029 49.927 43.3639C47.645 44.3579 42.072 44.2739 41.445 44.2739C40.516 44.2739 37.316 46.9249 37.316 46.9249V44.2739Z" fill="white"/>
<path d="M27.1583 30.9731C27.432 30.9777 27.7008 30.9007 27.9306 30.752C28.1604 30.6033 28.3407 30.3895 28.4486 30.138C28.5565 29.8865 28.5871 29.6085 28.5365 29.3395C28.486 29.0705 28.3565 28.8226 28.1646 28.6275C27.9726 28.4323 27.727 28.2987 27.4589 28.2436C27.1908 28.1885 26.9123 28.2144 26.659 28.3181C26.4057 28.4217 26.189 28.5984 26.0364 28.8257C25.8838 29.0529 25.8023 29.3204 25.8023 29.5941C25.7994 29.9568 25.9406 30.3058 26.1948 30.5643C26.4491 30.8229 26.7956 30.97 27.1583 30.9731Z" fill="white"/>
<path d="M49.7633 30.2964C50.0369 30.3009 50.3058 30.224 50.5356 30.0752C50.7653 29.9265 50.9457 29.7128 51.0536 29.4612C51.1615 29.2097 51.1921 28.9317 51.1415 28.6627C51.0909 28.3937 50.9614 28.1459 50.7695 27.9507C50.5776 27.7555 50.332 27.6219 50.0639 27.5668C49.7958 27.5117 49.5173 27.5376 49.264 27.6413C49.0107 27.745 48.7939 27.9217 48.6414 28.1489C48.4888 28.3762 48.4073 28.6437 48.4073 28.9174C48.4043 29.28 48.5455 29.629 48.7998 29.8876C49.0541 30.1462 49.4006 30.2932 49.7633 30.2964Z" fill="white"/>
<path d="M31.9584 33.0311L27.5694 29.2871L26.9004 30.0981L31.2894 33.8421L31.9584 33.0311Z" fill="white"/>
<path d="M46.1732 34.0081L49.9322 29.6081L49.1462 28.9131L45.3872 33.3131L46.1732 34.0081Z" fill="white"/>
<path d="M34.8442 39.2461C35.209 39.2522 35.5674 39.1497 35.8738 38.9516C36.1802 38.7535 36.4207 38.4687 36.5648 38.1335C36.7089 37.7983 36.75 37.4278 36.6829 37.0692C36.6158 36.7105 36.4435 36.38 36.188 36.1195C35.9325 35.8591 35.6053 35.6805 35.248 35.6065C34.8907 35.5326 34.5195 35.5666 34.1816 35.7042C33.8437 35.8418 33.5543 36.0768 33.3504 36.3794C33.1464 36.6819 33.0371 37.0382 33.0362 37.4031C33.0337 37.6429 33.0785 37.8808 33.1681 38.1033C33.2576 38.3257 33.3901 38.5283 33.5581 38.6995C33.726 38.8707 33.926 39.0071 34.1467 39.1009C34.3674 39.1947 34.6044 39.244 34.8442 39.2461Z" fill="#EE0033"/>
<path d="M46.5981 39.2461C46.9629 39.2522 47.3213 39.1497 47.6277 38.9516C47.9341 38.7535 48.1746 38.4687 48.3187 38.1335C48.4628 37.7983 48.5039 37.4278 48.4368 37.0692C48.3697 36.7105 48.1974 36.38 47.9419 36.1195C47.6864 35.8591 47.3592 35.6805 47.0019 35.6065C46.6446 35.5326 46.2734 35.5666 45.9355 35.7042C45.5976 35.8418 45.3083 36.0768 45.1043 36.3794C44.9003 36.6819 44.791 37.0382 44.7901 37.4031C44.7876 37.6429 44.8324 37.8808 44.922 38.1033C45.0115 38.3257 45.144 38.5283 45.312 38.6995C45.4799 38.8707 45.6799 39.0071 45.9006 39.1009C46.1213 39.1947 46.3583 39.244 46.5981 39.2461Z" fill="#EE0033"/>
<path d="M42.4201 38.786C42.4461 38.8049 42.4678 38.8292 42.4837 38.8571C42.4997 38.885 42.5095 38.916 42.5127 38.9481C42.5158 38.9801 42.5121 39.0124 42.5018 39.0429C42.4916 39.0734 42.475 39.1013 42.4531 39.125C42.2365 39.3474 41.9763 39.5228 41.6888 39.6401C41.4013 39.7575 41.0928 39.8143 40.7823 39.8071C40.4719 39.7999 40.1663 39.7287 39.8846 39.5981C39.6029 39.4675 39.3512 39.2802 39.1451 39.048C39.1244 39.0234 39.1091 38.9947 39.1002 38.9638C39.0913 38.9329 39.0891 38.9005 39.0936 38.8687C39.0981 38.8369 39.1093 38.8064 39.1265 38.7792C39.1436 38.752 39.1663 38.7287 39.1931 38.711C39.2488 38.6747 39.3156 38.6597 39.3815 38.6685C39.4474 38.6773 39.5079 38.7094 39.5521 38.759C39.7122 38.9286 39.9044 39.0648 40.1174 39.1596C40.3305 39.2544 40.5603 39.306 40.7935 39.3114C41.0267 39.3168 41.2586 39.2759 41.4759 39.191C41.6931 39.1061 41.8914 38.979 42.0591 38.817C42.1056 38.7695 42.1676 38.7403 42.2339 38.7346C42.3001 38.7289 42.3662 38.7471 42.4201 38.786Z" fill="#EE0033"/>
</g>
<defs>
<filter id="filter0_d_190_1587" x="0" y="0" width="76" height="76" filterUnits="userSpaceOnUse" color-interpolation-filters="sRGB">
<feFlood flood-opacity="0" result="BackgroundImageFix"/>
<feColorMatrix in="SourceAlpha" type="matrix" values="0 0 0 0 0 0 0 0 0 0 0 0 0 0 0 0 0 0 127 0" result="hardAlpha"/>
<feOffset dy="2"/>
<feGaussianBlur stdDeviation="6"/>
<feColorMatrix type="matrix" values="0 0 0 0 0.933333 0 0 0 0 0 0 0 0 0 0.2 0 0 0 0.161 0"/>
<feBlend mode="normal" in2="BackgroundImageFix" result="effect1_dropShadow_190_1587"/>
<feBlend mode="normal" in="SourceGraphic" in2="effect1_dropShadow_190_1587" result="shape"/>
</filter>
<clipPath id="clip0_190_1587">
<rect width="37.645" height="27.104" fill="white" transform="translate(19 24)"/>
</clipPath>
</defs>
</svg>
