<svg width="32" height="32" viewBox="0 0 32 32" fill="none" xmlns="http://www.w3.org/2000/svg">
<path d="M19.24 25.0935C18.9866 25.0935 18.7333 25.0002 18.5333 24.8002C18.3473 24.612 18.243 24.3581 18.243 24.0935C18.243 23.8289 18.3473 23.575 18.5333 23.3868L25.92 16.0002L18.5333 8.61349C18.3473 8.42531 18.243 8.1714 18.243 7.90682C18.243 7.64225 18.3473 7.38834 18.5333 7.20016C18.92 6.81349 19.56 6.81349 19.9466 7.20016L28.04 15.2935C28.4266 15.6802 28.4266 16.3202 28.04 16.7068L19.9466 24.8002C19.7466 25.0002 19.4933 25.0935 19.24 25.0935Z" fill="#D9D9D9"/>
<path d="M27.1066 17H4.66663C4.11996 17 3.66663 16.5467 3.66663 16C3.66663 15.4533 4.11996 15 4.66663 15H27.1066C27.6533 15 28.1066 15.4533 28.1066 16C28.1066 16.5467 27.6533 17 27.1066 17Z" fill="#D9D9D9"/>
</svg>
