<svg width="28" height="28" viewBox="0 0 28 28" fill="none" xmlns="http://www.w3.org/2000/svg">
<path d="M10.4884 25.0836C8.55171 25.0836 6.60338 24.3486 5.12171 22.867C2.17004 19.9036 2.17004 15.097 5.12171 12.1453C5.46004 11.807 6.02004 11.807 6.35838 12.1453C6.69671 12.4836 6.69671 13.0436 6.35838 13.382C5.26565 14.4763 4.6519 15.9596 4.6519 17.5061C4.6519 19.0526 5.26565 20.5359 6.35838 21.6303C7.45274 22.723 8.93604 23.3368 10.4825 23.3368C12.029 23.3368 13.5123 22.723 14.6067 21.6303C15.7034 20.5336 16.31 19.0636 16.31 17.5003C16.31 15.9486 15.7034 14.4786 14.6067 13.3703C14.444 13.2056 14.3527 12.9835 14.3527 12.752C14.3527 12.5205 14.444 12.2983 14.6067 12.1336C14.945 11.7953 15.505 11.7953 15.8434 12.1336C16.5499 12.8368 17.1097 13.6733 17.4902 14.5946C17.8707 15.5158 18.0644 16.5035 18.06 17.5003C18.06 19.5303 17.2667 21.432 15.8434 22.867C15.1423 23.573 14.3078 24.1326 13.3885 24.5131C12.4692 24.8937 11.4833 25.0876 10.4884 25.0836Z" fill="#EE0033"/>
<path d="M22.2484 16.5199C22.0268 16.5199 21.8051 16.4383 21.6301 16.2633C21.4674 16.0986 21.3761 15.8764 21.3761 15.6449C21.3761 15.4134 21.4674 15.1913 21.6301 15.0266C24.0218 12.6349 24.0218 8.74995 21.6301 6.36995C19.2384 3.97828 15.3534 3.97828 12.9734 6.36995C12.403 6.93701 11.9505 7.61147 11.6421 8.35437C11.3337 9.09728 11.1756 9.89392 11.1768 10.6983C11.1768 12.3316 11.8184 13.8716 12.9734 15.0266C13.3118 15.3649 13.3118 15.9249 12.9734 16.2633C12.6351 16.6016 12.0751 16.6016 11.7368 16.2633C11.0037 15.5339 10.4222 14.6667 10.0257 13.7116C9.62925 12.7565 9.4257 11.7324 9.42676 10.6983C9.42676 8.59828 10.2434 6.61495 11.7368 5.13328C14.8051 2.06495 19.7984 2.06495 22.8784 5.13328C25.9468 8.20161 25.9468 13.2066 22.8784 16.2749C22.7034 16.4383 22.4701 16.5199 22.2484 16.5199Z" fill="#EE0033"/>
</svg>
