<svg width="32" height="32" viewBox="0 0 32 32" fill="none" xmlns="http://www.w3.org/2000/svg">
<path d="M19.2401 25.0935C18.9868 25.0935 18.7334 25.0002 18.5334 24.8002C18.3475 24.612 18.2432 24.3581 18.2432 24.0935C18.2432 23.8289 18.3475 23.575 18.5334 23.3868L25.9201 16.0002L18.5334 8.61349C18.3475 8.42531 18.2432 8.1714 18.2432 7.90682C18.2432 7.64225 18.3475 7.38834 18.5334 7.20016C18.9201 6.81349 19.5601 6.81349 19.9468 7.20016L28.0401 15.2935C28.4268 15.6802 28.4268 16.3202 28.0401 16.7068L19.9468 24.8002C19.7468 25.0002 19.4934 25.0935 19.2401 25.0935Z" fill="black"/>
<path d="M27.1067 17H4.66675C4.12008 17 3.66675 16.5467 3.66675 16C3.66675 15.4533 4.12008 15 4.66675 15H27.1067C27.6534 15 28.1067 15.4533 28.1067 16C28.1067 16.5467 27.6534 17 27.1067 17Z" fill="black"/>
</svg>
