<svg width="16" height="15" viewBox="0 0 16 15" fill="none" xmlns="http://www.w3.org/2000/svg">
<mask id="mask0_333_649" style="mask-type:luminance" maskUnits="userSpaceOnUse" x="0" y="0" width="17" height="15">
<path d="M16.0012 0H0V14.8917H16.0012V0Z" fill="white"/>
</mask>
<g mask="url(#mask0_333_649)">
<path d="M15.9632 11.2405C15.3345 10.6902 14.6457 10.2026 13.9081 9.78572C13.143 9.31398 12.3497 8.88328 11.5319 8.49572C11.5092 8.4863 11.4842 8.48279 11.4595 8.48558C11.4349 8.48836 11.4115 8.49734 11.3919 8.51154C10.9768 8.8131 10.2768 9.36689 10.2398 9.39667C9.99776 9.59026 9.99776 9.59026 9.79975 9.52976C8.91034 9.16921 8.10392 8.65254 7.42457 8.00802C6.72386 7.36577 6.15843 6.60721 5.75744 5.77146C5.69243 5.58532 5.69243 5.58532 5.90045 5.36101C5.93245 5.32564 6.5285 4.67506 6.85152 4.28881C6.86678 4.27056 6.87643 4.2488 6.87942 4.22585C6.88242 4.20289 6.87865 4.17962 6.86852 4.1585C6.4538 3.39748 5.99268 2.65914 5.48742 1.94708C5.0393 1.26118 4.51578 0.620495 3.9253 0.0353558C3.90708 0.0193262 3.88454 0.00818149 3.86007 0.00310214C3.83559 -0.00197721 3.8101 -0.000802068 3.78629 0.00650304C3.09212 0.228535 2.42235 0.511837 1.78614 0.85254C1.17178 1.18486 0.59014 1.56702 0.0480038 1.99455C0.0290297 2.00957 0.0148135 2.02911 0.00688405 2.05109C-0.00104541 2.07306 -0.00238811 2.09664 0.00300039 2.11927C0.336531 3.3624 0.85455 4.55622 1.54212 5.66629C2.459 7.31737 3.66607 8.81415 5.11339 10.0947C6.50528 11.4523 8.12691 12.5882 9.91376 13.4575C11.1064 14.0973 12.3892 14.5791 13.725 14.8889C13.7492 14.8937 13.7743 14.8923 13.7977 14.8849C13.8211 14.8775 13.8419 14.8645 13.8581 14.847C14.3171 14.3425 14.7274 13.8012 15.0842 13.2294C15.4502 12.6373 15.7546 12.014 15.9932 11.368C16.0009 11.3459 16.002 11.3224 15.9966 11.2998C15.9911 11.2772 15.9793 11.2564 15.9622 11.2395L15.9632 11.2405Z" fill="#FF0033"/>
</g>
</svg>
