<svg width="16" height="13" viewBox="0 0 16 13" fill="none" xmlns="http://www.w3.org/2000/svg">
<mask id="mask0_333_642" style="mask-type:luminance" maskUnits="userSpaceOnUse" x="0" y="-2" width="16" height="16">
<path d="M16 -1.24219H0V13.6484H16V-1.24219Z" fill="white"/>
</mask>
<g mask="url(#mask0_333_642)">
<path d="M8.516 7.56927C8.35812 7.65025 8.18077 7.69272 8.0005 7.69272C7.82023 7.69272 7.64288 7.65025 7.485 7.56927L0 3.72656V10.9197C0 11.3146 0.168571 11.6933 0.468629 11.9726C0.768687 12.2518 1.17565 12.4087 1.6 12.4087H14.4C14.8243 12.4087 15.2313 12.2518 15.5314 11.9726C15.8314 11.6933 16 11.3146 16 10.9197V3.72656L8.516 7.56927Z" fill="#FF0033"/>
<path d="M14.4 0H1.6C1.17565 0 0.768687 0.156883 0.468629 0.436136C0.168571 0.715388 9.98093e-08 1.09414 9.98093e-08 1.48906V2.72963C-4.12106e-05 2.7741 0.0127418 2.81777 0.0370153 2.85607C0.0612888 2.89438 0.0961634 2.92592 0.138 2.94741L7.867 6.91761C7.9065 6.9379 7.95088 6.94854 7.996 6.94854C8.04112 6.94854 8.0855 6.9379 8.125 6.91761L15.867 2.94741C15.9088 2.92592 15.9437 2.89438 15.968 2.85607C15.9923 2.81777 16.005 2.7741 16.005 2.72963V1.48906C16.005 1.09414 15.8364 0.715388 15.5364 0.436136C15.2363 0.156883 14.8293 0 14.405 0H14.4Z" fill="#FF0033"/>
</g>
</svg>
