<svg width="56" height="56" viewBox="0 0 56 56" fill="none" xmlns="http://www.w3.org/2000/svg">
<path d="M33.6702 43.9136C33.2268 43.9136 32.7835 43.7503 32.4335 43.4003C32.1081 43.071 31.9255 42.6266 31.9255 42.1636C31.9255 41.7006 32.1081 41.2563 32.4335 40.9269L45.3602 28.0003L32.4335 15.0736C32.1081 14.7443 31.9255 14.2999 31.9255 13.8369C31.9255 13.3739 32.1081 12.9296 32.4335 12.6003C33.1102 11.9236 34.2302 11.9236 34.9068 12.6003L49.0702 26.7636C49.7468 27.4403 49.7468 28.5603 49.0702 29.2369L34.9068 43.4003C34.5568 43.7503 34.1135 43.9136 33.6702 43.9136Z" fill="white"/>
<path d="M47.4367 29.75H8.16675C7.21008 29.75 6.41675 28.9567 6.41675 28C6.41675 27.0433 7.21008 26.25 8.16675 26.25H47.4367C48.3934 26.25 49.1867 27.0433 49.1867 28C49.1867 28.9567 48.3934 29.75 47.4367 29.75Z" fill="white"/>
</svg>
