<svg width="76" height="72" viewBox="0 0 76 72" fill="none" xmlns="http://www.w3.org/2000/svg">
<g filter="url(#filter0_d_190_1511)">
<path d="M38 10C43.1423 10 48.1691 11.3944 52.4448 14.0068C56.7205 16.6192 60.053 20.3323 62.0209 24.6766C63.9887 29.0208 64.5036 33.8011 63.5004 38.413C62.4972 43.0248 60.0209 47.2611 56.3848 50.5861C52.7486 53.911 48.1159 56.1753 43.0723 57.0927C38.0288 58.01 32.8011 57.5392 28.0502 55.7398C23.2994 53.9403 19.2387 50.893 16.3818 46.9833C13.5249 43.0736 12 38.477 12 33.7748C12 27.4693 14.7393 21.4221 19.6152 16.9635C24.4912 12.5048 31.1044 10 38 10Z" fill="white"/>
</g>
<mask id="mask0_190_1511" style="mask-type:luminance" maskUnits="userSpaceOnUse" x="28" y="24" width="20" height="19">
<path d="M28 24.6307V42.9189H48V24.6307H28Z" fill="white"/>
</mask>
<g mask="url(#mask0_190_1511)">
<path d="M38.8498 25.4052V42.1445C38.8498 42.35 38.7605 42.5471 38.6016 42.6925C38.4426 42.8378 38.2271 42.9194 38.0023 42.9194C37.7775 42.9194 37.5619 42.8378 37.403 42.6925C37.2441 42.5471 37.1548 42.35 37.1548 42.1445V25.4052C37.1548 25.1997 37.2441 25.0026 37.403 24.8572C37.5619 24.7119 37.7775 24.6302 38.0023 24.6302C38.2271 24.6302 38.4426 24.7119 38.6016 24.8572C38.7605 25.0026 38.8498 25.1997 38.8498 25.4052Z" fill="#EE0033"/>
<path d="M46.0118 31.9551C46.0122 32.057 45.9906 32.1579 45.9482 32.252C45.9058 32.3462 45.8435 32.4318 45.7648 32.5038C45.6049 32.6481 45.3894 32.729 45.1648 32.729C44.9401 32.729 44.7246 32.6481 44.5648 32.5038L38.0018 26.4906L31.4388 32.5038C31.2779 32.6414 31.0649 32.7164 30.8446 32.7131C30.6244 32.7097 30.4142 32.6282 30.2584 32.4858C30.1027 32.3434 30.0136 32.1512 30.0099 31.9498C30.0062 31.7484 30.0883 31.5536 30.2388 31.4065L37.4018 24.8566C37.5616 24.7123 37.7771 24.6313 38.0018 24.6313C38.2264 24.6313 38.4419 24.7123 38.6018 24.8566L45.7648 31.4065C45.8435 31.4785 45.9058 31.5641 45.9482 31.6583C45.9906 31.7524 46.0122 31.8533 46.0118 31.9551Z" fill="#EE0033"/>
</g>
<g clip-path="url(#clip0_190_1511)">
<path d="M35.2151 43.4532C35.2151 43.4532 20.7651 44.4864 19.2831 39.8366C17.8011 35.1869 22.2471 27.2635 29.8431 24.6802C37.4391 22.097 50.1651 21.7925 53.7431 26.2439C56.2941 29.3437 58.7431 39.4928 53.7431 42.076C49.8531 43.6305 43.3271 43.4541 42.2571 43.4541C40.6731 43.4541 35.2171 47.5881 35.2171 47.5881L35.2151 43.4532Z" fill="#EE0033"/>
<path d="M37.316 41.3405C37.316 41.3405 25.623 42.1717 24.754 39.445C23.885 36.7182 27.236 31.0534 31.691 29.5382C36.146 28.023 47.043 28.0578 49.141 30.6684C50.641 32.4863 52.863 38.9896 49.927 40.5084C47.645 41.4173 42.072 41.3405 41.445 41.3405C40.516 41.3405 37.316 43.7646 37.316 43.7646V41.3405Z" fill="white"/>
<path d="M27.1583 29.178C27.432 29.1822 27.7008 29.1118 27.9306 28.9758C28.1604 28.8398 28.3407 28.6444 28.4486 28.4144C28.5565 28.1843 28.5871 27.9302 28.5365 27.6842C28.486 27.4382 28.3565 27.2116 28.1646 27.0331C27.9726 26.8547 27.727 26.7324 27.4589 26.6821C27.1908 26.6317 26.9123 26.6554 26.659 26.7502C26.4057 26.845 26.189 27.0066 26.0364 27.2144C25.8838 27.4222 25.8023 27.6668 25.8023 27.9171C25.7994 28.2487 25.9406 28.5678 26.1948 28.8042C26.4491 29.0407 26.7956 29.1751 27.1583 29.178Z" fill="white"/>
<path d="M49.7633 28.5589C50.0369 28.5631 50.3058 28.4927 50.5356 28.3567C50.7653 28.2207 50.9457 28.0252 51.0536 27.7952C51.1615 27.5652 51.1921 27.311 51.1415 27.0651C51.0909 26.8191 50.9614 26.5924 50.7695 26.414C50.5776 26.2355 50.332 26.1133 50.0639 26.0629C49.7958 26.0125 49.5173 26.0363 49.264 26.131C49.0107 26.2258 48.7939 26.3874 48.6414 26.5952C48.4888 26.803 48.4073 27.0476 48.4073 27.2979C48.4043 27.6295 48.5455 27.9486 48.7998 28.1851C49.0541 28.4215 49.4006 28.556 49.7633 28.5589Z" fill="white"/>
<path d="M31.9581 31.0598L27.5691 27.6362L26.9001 28.3778L31.2891 31.8014L31.9581 31.0598Z" fill="white"/>
<path d="M46.1732 31.9534L49.9322 27.93L49.1462 27.2944L45.3872 31.3179L46.1732 31.9534Z" fill="white"/>
<path d="M34.8442 36.7429C35.209 36.7485 35.5674 36.6547 35.8738 36.4736C36.1802 36.2924 36.4207 36.032 36.5648 35.7255C36.7089 35.419 36.75 35.0802 36.6829 34.7523C36.6158 34.4243 36.4435 34.122 36.188 33.8839C35.9325 33.6457 35.6053 33.4824 35.248 33.4148C34.8907 33.3472 34.5195 33.3782 34.1816 33.5041C33.8437 33.6299 33.5543 33.8448 33.3504 34.1215C33.1464 34.3981 33.0371 34.724 33.0362 35.0576C33.0337 35.2769 33.0785 35.4944 33.1681 35.6978C33.2576 35.9012 33.3901 36.0865 33.5581 36.243C33.726 36.3996 33.926 36.5243 34.1467 36.6101C34.3674 36.6958 34.6044 36.7409 34.8442 36.7429Z" fill="#EE0033"/>
<path d="M46.5981 36.7429C46.9629 36.7485 47.3213 36.6547 47.6277 36.4736C47.9341 36.2924 48.1746 36.032 48.3187 35.7255C48.4628 35.419 48.5039 35.0802 48.4368 34.7523C48.3697 34.4243 48.1974 34.122 47.9419 33.8839C47.6864 33.6457 47.3592 33.4824 47.0019 33.4148C46.6446 33.3472 46.2734 33.3782 45.9355 33.5041C45.5976 33.6299 45.3083 33.8448 45.1043 34.1215C44.9003 34.3981 44.791 34.724 44.7901 35.0576C44.7876 35.2769 44.8324 35.4944 44.922 35.6978C45.0115 35.9012 45.144 36.0865 45.312 36.243C45.4799 36.3996 45.6799 36.5243 45.9006 36.6101C46.1213 36.6958 46.3583 36.7409 46.5981 36.7429Z" fill="#EE0033"/>
<path d="M42.4201 36.3226C42.4461 36.3399 42.4678 36.3621 42.4837 36.3876C42.4997 36.4132 42.5095 36.4415 42.5127 36.4708C42.5158 36.5001 42.5121 36.5296 42.5018 36.5575C42.4916 36.5854 42.475 36.611 42.4531 36.6326C42.2365 36.8359 41.9763 36.9963 41.6888 37.1036C41.4013 37.211 41.0928 37.2629 40.7823 37.2563C40.4719 37.2497 40.1663 37.1847 39.8846 37.0652C39.6029 36.9458 39.3512 36.7745 39.1451 36.5621C39.1244 36.5397 39.1091 36.5135 39.1002 36.4852C39.0913 36.457 39.0891 36.4273 39.0936 36.3982C39.0981 36.3691 39.1093 36.3412 39.1265 36.3164C39.1436 36.2915 39.1663 36.2703 39.1931 36.254C39.2488 36.2209 39.3156 36.2071 39.3815 36.2151C39.4474 36.2232 39.5079 36.2525 39.5521 36.2979C39.7122 36.453 39.9044 36.5775 40.1174 36.6642C40.3305 36.7509 40.5603 36.7981 40.7935 36.8031C41.0267 36.808 41.2586 36.7706 41.4759 36.693C41.6931 36.6153 41.8914 36.4991 42.0591 36.3509C42.1056 36.3075 42.1676 36.2808 42.2339 36.2756C42.3001 36.2704 42.3662 36.287 42.4201 36.3226Z" fill="#EE0033"/>
</g>
<defs>
<filter id="filter0_d_190_1511" x="0" y="0" width="76" height="71.5493" filterUnits="userSpaceOnUse" color-interpolation-filters="sRGB">
<feFlood flood-opacity="0" result="BackgroundImageFix"/>
<feColorMatrix in="SourceAlpha" type="matrix" values="0 0 0 0 0 0 0 0 0 0 0 0 0 0 0 0 0 0 127 0" result="hardAlpha"/>
<feOffset dy="2"/>
<feGaussianBlur stdDeviation="6"/>
<feColorMatrix type="matrix" values="0 0 0 0 0.933333 0 0 0 0 0 0 0 0 0 0.2 0 0 0 0.161 0"/>
<feBlend mode="normal" in2="BackgroundImageFix" result="effect1_dropShadow_190_1511"/>
<feBlend mode="normal" in="SourceGraphic" in2="effect1_dropShadow_190_1511" result="shape"/>
</filter>
<clipPath id="clip0_190_1511">
<rect width="37.645" height="24.7843" fill="white" transform="translate(19 22.8018)"/>
</clipPath>
</defs>
</svg>
