<svg width="24" height="24" viewBox="0 0 24 24" fill="none" xmlns="http://www.w3.org/2000/svg">
<path d="M15 20.6695C14.81 20.6695 14.62 20.5995 14.47 20.4495L7.94999 13.9295C7.4407 13.4163 7.15491 12.7226 7.15491 11.9995C7.15491 11.2765 7.4407 10.5828 7.94999 10.0695L14.47 3.54953C14.76 3.25953 15.24 3.25953 15.53 3.54953C15.82 3.83953 15.82 4.31953 15.53 4.60953L9.00999 11.1295C8.52999 11.6095 8.52999 12.3895 9.00999 12.8695L15.53 19.3895C15.82 19.6795 15.82 20.1595 15.53 20.4495C15.38 20.5895 15.19 20.6695 15 20.6695Z" fill="#EE0033"/>
</svg>
