<svg width="20" height="19" viewBox="0 0 20 19" fill="none" xmlns="http://www.w3.org/2000/svg">
<path opacity="0.496" fill-rule="evenodd" clip-rule="evenodd" d="M2.57853 0H18.3509C18.6203 0.00149085 18.8782 0.101744 19.0687 0.279022C19.2592 0.4563 19.3669 0.696313 19.3685 0.947017V11.0053C19.3664 11.2571 19.2604 11.4985 19.0724 11.6796L14.5727 15.8673C14.4777 15.9557 14.3647 16.0257 14.2403 16.073C14.1158 16.1203 13.9825 16.1441 13.8482 16.1429H9.72088C9.55284 16.1434 9.38758 16.1828 9.23985 16.2573C9.09211 16.3318 8.96651 16.4392 8.87426 16.57L7.43541 18.5738C7.34244 18.7039 7.21669 18.8108 7.06911 18.8853C6.92154 18.9597 6.75664 18.9994 6.58879 19.0009H5.10212C4.83273 18.9995 4.57484 18.8992 4.38435 18.7219C4.19387 18.5446 4.08614 18.3046 4.08454 18.0539V17.1069C4.08294 16.8562 3.97522 16.6162 3.78473 16.4389C3.59425 16.2616 3.33635 16.1614 3.06697 16.1599H1.01758C0.748194 16.1584 0.4903 16.0582 0.299815 15.8809C0.109329 15.7036 0.00160593 15.4636 4.00387e-06 15.2129V3.14315C-0.000566148 2.95691 0.0597685 2.77491 0.172992 2.62134L1.74412 0.437522C1.83015 0.302867 1.95273 0.191643 2.09954 0.115013C2.24636 0.0383832 2.41225 -0.000954912 2.58057 0.000947174L2.57853 0Z" fill="black" fill-opacity="0.36"/>
<path fill-rule="evenodd" clip-rule="evenodd" d="M6.10942 4.88228V10.304C6.10928 10.3751 6.12425 10.4456 6.15345 10.5114C6.18265 10.5772 6.22552 10.6369 6.2796 10.6873C6.33367 10.7376 6.39789 10.7775 6.46857 10.8047C6.53925 10.8318 6.61499 10.8458 6.69147 10.8456H7.85455C7.93103 10.8458 8.00678 10.8318 8.07745 10.8047C8.14813 10.7775 8.21235 10.7376 8.26642 10.6873C8.3205 10.6369 8.36337 10.5772 8.39257 10.5114C8.42177 10.4456 8.43674 10.3751 8.43661 10.304V4.88228C8.43661 4.73861 8.37528 4.60083 8.26613 4.49924C8.15697 4.39766 8.00892 4.34059 7.85455 4.34059H6.69045C6.53675 4.34231 6.38988 4.39997 6.28129 4.50121C6.17269 4.60245 6.111 4.73923 6.10942 4.88228Z" fill="black"/>
<path fill-rule="evenodd" clip-rule="evenodd" d="M11.9351 4.88228V10.304C11.935 10.3751 11.95 10.4456 11.9792 10.5114C12.0084 10.5772 12.0512 10.6369 12.1053 10.6873C12.1594 10.7376 12.2236 10.7775 12.2943 10.8047C12.365 10.8318 12.4407 10.8458 12.5172 10.8456H13.6823C13.7588 10.8458 13.8345 10.8318 13.9052 10.8047C13.9759 10.7775 14.0401 10.7376 14.0942 10.6873C14.1482 10.6369 14.1911 10.5772 14.2203 10.5114C14.2495 10.4456 14.2645 10.3751 14.2643 10.304V4.88228C14.2643 4.73861 14.203 4.60083 14.0939 4.49924C13.9847 4.39766 13.8367 4.34059 13.6823 4.34059H12.5172C12.3633 4.34206 12.2162 4.39961 12.1074 4.50088C11.9985 4.60215 11.9367 4.73907 11.9351 4.88228Z" fill="black"/>
</svg>
