<svg width="70" height="70" viewBox="0 0 70 70" fill="none" xmlns="http://www.w3.org/2000/svg">
<path d="M68.8379 35C68.8379 41.5741 66.9502 47.9492 63.3791 53.4358C62.8642 54.2269 61.8056 54.4508 61.0146 53.9358C60.2235 53.4209 59.9997 52.3623 60.5146 51.5713C63.7237 46.6409 65.4199 40.9106 65.4199 35C65.4199 18.2264 51.7736 4.58008 35 4.58008C18.2264 4.58008 4.58008 18.2264 4.58008 35C4.58008 51.7736 18.2264 65.4199 35 65.4199C40.9106 65.4199 46.6409 63.7237 51.5713 60.5146C52.3622 59.9996 53.4209 60.2235 53.9358 61.0146C54.4507 61.8056 54.2269 62.8642 53.4358 63.3791C47.9493 66.9502 41.5743 68.8379 35 68.8379C25.9615 68.8379 17.4642 65.3181 11.073 58.927C4.6818 52.536 1.16211 44.0385 1.16211 35C1.16211 25.9615 4.68193 17.4642 11.073 11.073C17.464 4.6818 25.9615 1.16211 35 1.16211C44.0385 1.16211 52.5358 4.68193 58.927 11.073C65.3182 17.464 68.8379 25.9615 68.8379 35ZM56.5447 56.4755L56.4755 56.5447C55.8072 57.2112 55.8057 58.2933 56.4722 58.9616C56.6308 59.121 56.8194 59.2475 57.0271 59.3337C57.2348 59.4199 57.4575 59.4641 57.6823 59.4638C58.1189 59.4638 58.5555 59.2975 58.8891 58.9649L58.965 58.889C59.6315 58.2207 59.63 57.1386 58.9617 56.4721C58.2932 55.8056 57.2112 55.8072 56.5447 56.4755ZM50.3193 32.4708C51.189 33.0393 51.6878 33.9611 51.6878 35C51.6878 36.0389 51.189 36.9608 50.3193 37.5292L29.9791 50.8234C29.4712 51.1554 28.9019 51.3226 28.33 51.3226C27.8392 51.3226 27.3463 51.1995 26.8883 50.9517C25.8967 50.4152 25.3047 49.4218 25.3047 48.2943V21.7057C25.3047 20.5782 25.8967 19.5848 26.8883 19.0482C27.88 18.5116 29.0355 18.5596 29.9793 19.1766L50.3193 32.4708ZM47.9415 35L28.7226 22.4387V47.5614L47.9415 35Z" fill="#707070"/>
</svg>
