<svg width="32" height="32" viewBox="0 0 32 32" fill="none" xmlns="http://www.w3.org/2000/svg">
<path d="M24.2759 16.5518C24.1296 16.5518 23.9893 16.4937 23.8858 16.3902C23.7823 16.2867 23.7242 16.1464 23.7242 16.0001C23.7242 14.783 24.714 13.7932 25.9311 13.7932H29.2414C29.5454 13.7932 29.7932 13.5454 29.7932 13.2414V10.4828C29.7932 10.3365 29.8513 10.1962 29.9548 10.0927C30.0582 9.98923 30.1986 9.9311 30.3449 9.9311C30.4912 9.9311 30.6316 9.98923 30.735 10.0927C30.8385 10.1962 30.8966 10.3365 30.8966 10.4828V13.2414C30.8966 14.154 30.154 14.8966 29.2414 14.8966H25.9311C25.3225 14.8966 24.8277 15.3915 24.8277 16.0001C24.8277 16.1464 24.7695 16.2867 24.6661 16.3902C24.5626 16.4937 24.4223 16.5518 24.2759 16.5518ZM8.82765 10.4828H6.06903C3.33083 10.4828 1.10352 8.25496 1.10352 5.51731C1.10352 5.37098 1.16164 5.23065 1.26511 5.12718C1.36858 5.02371 1.50891 4.96558 1.65524 4.96558C1.80157 4.96558 1.9419 5.02371 2.04537 5.12718C2.14884 5.23065 2.20696 5.37098 2.20696 5.51731C2.20696 7.64696 3.93938 9.37938 6.06903 9.37938H8.82765C8.97398 9.37938 9.11431 9.4375 9.21778 9.54097C9.32125 9.64444 9.37938 9.78478 9.37938 9.9311C9.37938 10.0774 9.32125 10.2178 9.21778 10.3212C9.11431 10.4247 8.97398 10.4828 8.82765 10.4828ZM12.6897 29.2414H8.27593C8.1296 29.2414 7.98927 29.1833 7.8858 29.0799C7.78233 28.9764 7.72421 28.836 7.72421 28.6897C7.72421 28.5434 7.78233 28.4031 7.8858 28.2996C7.98927 28.1961 8.1296 28.138 8.27593 28.138H12.6897C14.2108 28.138 15.4483 26.9005 15.4483 25.3794C15.4483 25.2331 15.5065 25.0927 15.6099 24.9893C15.7134 24.8858 15.8537 24.8277 16.0001 24.8277C16.1464 24.8277 16.2867 24.8858 16.3902 24.9893C16.4937 25.0927 16.5518 25.2331 16.5518 25.3794C16.5518 27.509 14.8194 29.2414 12.6897 29.2414ZM8.82765 22.6208H3.31041C3.16409 22.6208 3.02375 22.5626 2.92028 22.4592C2.81682 22.3557 2.75869 22.2154 2.75869 22.069C2.75869 21.9227 2.81682 21.7824 2.92028 21.6789C3.02375 21.5754 3.16409 21.5173 3.31041 21.5173H8.82765C8.97398 21.5173 9.11431 21.5754 9.21778 21.6789C9.32125 21.7824 9.37938 21.9227 9.37938 22.069C9.37938 22.2154 9.32125 22.3557 9.21778 22.4592C9.11431 22.5626 8.97398 22.6208 8.82765 22.6208ZM16.0001 3.86214C15.8537 3.86214 15.7134 3.80401 15.6099 3.70054C15.5065 3.59707 15.4483 3.45674 15.4483 3.31041C15.4483 2.70186 14.9534 2.20696 14.3449 2.20696H11.5863C11.4399 2.20696 11.2996 2.14884 11.1961 2.04537C11.0927 1.9419 11.0345 1.80157 11.0345 1.65524C11.0345 1.50891 11.0927 1.36858 11.1961 1.26511C11.2996 1.16164 11.4399 1.10352 11.5863 1.10352H14.3449C15.562 1.10352 16.5518 2.09331 16.5518 3.31041C16.5518 3.45674 16.4937 3.59707 16.3902 3.70054C16.2867 3.80401 16.1464 3.86214 16.0001 3.86214Z" fill="#9EEBF9"/>
<path d="M16 7.17258C15.8536 7.17258 15.7133 7.11445 15.6098 7.01099C15.5064 6.90752 15.4482 6.76718 15.4482 6.62086V3.31051C15.4482 3.16419 15.5064 3.02385 15.6098 2.92039C15.7133 2.81692 15.8536 2.75879 16 2.75879C16.1463 2.75879 16.2866 2.81692 16.3901 2.92039C16.4936 3.02385 16.5517 3.16419 16.5517 3.31051V6.62086C16.5517 6.76718 16.4936 6.90752 16.3901 7.01099C16.2866 7.11445 16.1463 7.17258 16 7.17258ZM20.4138 8.27603C20.2674 8.27603 20.1271 8.2179 20.0236 8.11443C19.9202 8.01097 19.862 7.87063 19.862 7.72431C19.862 6.5072 20.8518 5.51741 22.0689 5.51741H23.7241C24.0281 5.51741 24.2758 5.26969 24.2758 4.96569V3.31051C24.2758 3.16419 24.334 3.02385 24.4374 2.92039C24.5409 2.81692 24.6812 2.75879 24.8276 2.75879C24.9739 2.75879 25.1142 2.81692 25.2177 2.92039C25.3211 3.02385 25.3793 3.16419 25.3793 3.31051V4.96569C25.3793 5.87824 24.6367 6.62086 23.7241 6.62086H22.0689C21.4604 6.62086 20.9655 7.11575 20.9655 7.72431C20.9655 7.87063 20.9074 8.01097 20.8039 8.11443C20.7004 8.2179 20.5601 8.27603 20.4138 8.27603ZM30.3448 23.1726C30.1985 23.1726 30.0581 23.1145 29.9547 23.011C29.8512 22.9075 29.7931 22.7672 29.7931 22.6209V20.9657C29.7931 20.6617 29.5453 20.414 29.2413 20.414H23.9862C22.8391 20.414 22.0689 19.5273 22.0689 18.2071C22.0689 18.0607 22.1271 17.9204 22.2305 17.8169C22.334 17.7135 22.4743 17.6553 22.6207 17.6553C22.767 17.6553 22.9073 17.7135 23.0108 17.8169C23.1143 17.9204 23.1724 18.0607 23.1724 18.2071C23.1724 18.5392 23.2518 19.3105 23.9862 19.3105H29.2413C30.1539 19.3105 30.8965 20.0531 30.8965 20.9657V22.6209C30.8965 22.7672 30.8384 22.9075 30.7349 23.011C30.6315 23.1145 30.4911 23.1726 30.3448 23.1726ZM23.1724 27.5864C23.0261 27.5864 22.8857 27.5282 22.7823 27.4248C22.6788 27.3213 22.6207 27.181 22.6207 27.0347C22.6207 26.7307 22.3729 26.4829 22.0689 26.4829C20.8518 26.4829 19.862 25.4931 19.862 24.276C19.862 24.1297 19.9202 23.9894 20.0236 23.8859C20.1271 23.7824 20.2674 23.7243 20.4138 23.7243C20.5601 23.7243 20.7004 23.7824 20.8039 23.8859C20.9074 23.9894 20.9655 24.1297 20.9655 24.276C20.9655 24.8846 21.4604 25.3795 22.0689 25.3795C22.9815 25.3795 23.7241 26.1221 23.7241 27.0347C23.7241 27.181 23.666 27.3213 23.5625 27.4248C23.459 27.5282 23.3187 27.5864 23.1724 27.5864Z" fill="#9EEBF9"/>
<path d="M1.65517 5.51738C2.5693 5.51738 3.31034 4.77633 3.31034 3.8622C3.31034 2.94808 2.5693 2.20703 1.65517 2.20703C0.741046 2.20703 0 2.94808 0 3.8622C0 4.77633 0.741046 5.51738 1.65517 5.51738Z" fill="#5469E0"/>
<path d="M9.93105 3.31034C10.8452 3.31034 11.5862 2.5693 11.5862 1.65517C11.5862 0.741046 10.8452 0 9.93105 0C9.01692 0 8.27588 0.741046 8.27588 1.65517C8.27588 2.5693 9.01692 3.31034 9.93105 3.31034Z" fill="#5469E0"/>
<path d="M30.3449 10.4827C31.259 10.4827 32 9.74166 32 8.82754C32 7.91341 31.259 7.17236 30.3449 7.17236C29.4307 7.17236 28.6897 7.91341 28.6897 8.82754C28.6897 9.74166 29.4307 10.4827 30.3449 10.4827Z" fill="#5469E0"/>
<path d="M30.3449 25.931C31.259 25.931 32 25.1899 32 24.2758C32 23.3617 31.259 22.6206 30.3449 22.6206C29.4307 22.6206 28.6897 23.3617 28.6897 24.2758C28.6897 25.1899 29.4307 25.931 30.3449 25.931Z" fill="#5469E0"/>
<path d="M6.62075 30.345C7.53488 30.345 8.27592 29.604 8.27592 28.6898C8.27592 27.7757 7.53488 27.0347 6.62075 27.0347C5.70662 27.0347 4.96558 27.7757 4.96558 28.6898C4.96558 29.604 5.70662 30.345 6.62075 30.345Z" fill="#5469E0"/>
<path d="M1.65517 23.7239C2.5693 23.7239 3.31034 22.9829 3.31034 22.0687C3.31034 21.1546 2.5693 20.4136 1.65517 20.4136C0.741046 20.4136 0 21.1546 0 22.0687C0 22.9829 0.741046 23.7239 1.65517 23.7239Z" fill="#5469E0"/>
<path d="M24.8275 3.31034C25.7417 3.31034 26.4827 2.5693 26.4827 1.65517C26.4827 0.741046 25.7417 0 24.8275 0C23.9134 0 23.1724 0.741046 23.1724 1.65517C23.1724 2.5693 23.9134 3.31034 24.8275 3.31034Z" fill="#5469E0"/>
<path d="M15.9999 25.3792C21.18 25.3792 25.3792 21.18 25.3792 15.9999C25.3792 10.8199 21.18 6.62061 15.9999 6.62061C10.8199 6.62061 6.62061 10.8199 6.62061 15.9999C6.62061 21.18 10.8199 25.3792 15.9999 25.3792Z" fill="#5469E0"/>
<path d="M23.1724 29.2413C23.0261 29.2413 22.8857 29.1832 22.7823 29.0797C22.6788 28.9762 22.6207 28.8359 22.6207 28.6896V27.0344C22.6207 26.8881 22.6788 26.7478 22.7823 26.6443C22.8857 26.5408 23.0261 26.4827 23.1724 26.4827C23.3187 26.4827 23.459 26.5408 23.5625 26.6443C23.666 26.7478 23.7241 26.8881 23.7241 27.0344V28.6896C23.7241 28.8359 23.666 28.9762 23.5625 29.0797C23.459 29.1832 23.3187 29.2413 23.1724 29.2413ZM11.5862 14.8965H20.4138V21.5172H11.5862V14.8965Z" fill="#9EEBF9"/>
<path d="M14.3449 17.1035H17.6552V19.3104H14.3449V17.1035ZM16 9.37939C15.1221 9.37939 14.2801 9.72816 13.6593 10.349C13.0385 10.9698 12.6897 11.8118 12.6897 12.6897V14.8966H14.8966V12.6897C14.8966 12.3971 15.0128 12.1164 15.2198 11.9095C15.4267 11.7025 15.7074 11.5863 16 11.5863C16.2927 11.5863 16.5734 11.7025 16.7803 11.9095C16.9872 12.1164 17.1035 12.3971 17.1035 12.6897V14.8966H19.3104V12.6897C19.3104 11.8118 18.9616 10.9698 18.3408 10.349C17.72 9.72816 16.878 9.37939 16 9.37939Z" fill="white"/>
<path d="M23.1725 31.9998C24.0866 31.9998 24.8277 31.2588 24.8277 30.3446C24.8277 29.4305 24.0866 28.6895 23.1725 28.6895C22.2584 28.6895 21.5173 29.4305 21.5173 30.3446C21.5173 31.2588 22.2584 31.9998 23.1725 31.9998Z" fill="#5469E0"/>
</svg>
