<svg width="32" height="32" viewBox="0 0 32 32" fill="none" xmlns="http://www.w3.org/2000/svg">
<path d="M29.25 2.5C29.09 2.33993 28.8729 2.25001 28.6465 2.25H25.7072C25.6083 2.25001 25.5116 2.27934 25.4294 2.33427C25.3472 2.38921 25.2831 2.46729 25.2453 2.55864C25.2074 2.65 25.1975 2.75052 25.2168 2.8475C25.2361 2.94448 25.2837 3.03357 25.3536 3.1035L26.293 4.04287L22 8.33581L18.7071 5.04294C18.3166 4.65237 17.6834 4.65237 17.2929 5.04294L10.2929 12.0429C9.90236 12.4334 9.90236 13.0666 10.2929 13.4571C10.4882 13.6524 10.7441 13.75 11 13.75C11.256 13.75 11.5119 13.6524 11.7071 13.4571L18 7.16419L21.293 10.4571C21.6835 10.8476 22.3167 10.8476 22.7072 10.4571L27.7072 5.45706L28.6465 6.39644C28.7165 6.46637 28.8056 6.51399 28.9026 6.53328C28.9995 6.55258 29.1001 6.54268 29.1915 6.50483C29.2828 6.46699 29.3609 6.4029 29.4158 6.32067C29.4708 6.23844 29.5001 6.14177 29.5001 6.04287V3.1035C29.5 2.87714 29.4101 2.66007 29.25 2.5Z" fill="#555A6E"/>
<path d="M10.5 16.25H8.5C5.18631 16.25 2.5 13.5637 2.5 10.25C2.5 6.93631 5.18631 4.25 8.5 4.25H10.5C13.8137 4.25 16.5 6.93631 16.5 10.25C16.5 13.5637 13.8137 16.25 10.5 16.25Z" fill="#3CB44B"/>
<path d="M8.5 16.25C11.8137 16.25 14.5 13.5637 14.5 10.25C14.5 6.93629 11.8137 4.25 8.5 4.25C5.18629 4.25 2.5 6.93629 2.5 10.25C2.5 13.5637 5.18629 16.25 8.5 16.25Z" fill="#D7E123"/>
<path d="M10.5 9.25C10.6326 9.25 10.7598 9.19732 10.8536 9.10355C10.9473 9.00979 11 8.88261 11 8.75V8.65388C11 7.60406 10.1459 6.75 9.09612 6.75H9V5.75C9 5.61739 8.94732 5.49021 8.85355 5.39645C8.75979 5.30268 8.63261 5.25 8.5 5.25C8.36739 5.25 8.24021 5.30268 8.14645 5.39645C8.05268 5.49021 8 5.61739 8 5.75V6.75H7.90387C6.85406 6.75 6 7.60406 6 8.65388C5.99951 9.0786 6.14126 9.49125 6.40264 9.82602C6.66402 10.1608 7.02997 10.3984 7.44212 10.5009L9.31538 10.9692C9.51104 11.0179 9.68478 11.1307 9.80886 11.2897C9.93295 11.4486 10.0002 11.6445 10 11.8461C10 12.3445 9.5945 12.75 9.09612 12.75H7.90387C7.4055 12.75 7 12.3445 7 11.8461V11.75C7 11.6174 6.94732 11.4902 6.85355 11.3964C6.75979 11.3027 6.63261 11.25 6.5 11.25C6.36739 11.25 6.24021 11.3027 6.14645 11.3964C6.05268 11.4902 6 11.6174 6 11.75V11.8461C6 12.8959 6.85406 13.75 7.90387 13.75H8V14.75C8 14.8826 8.05268 15.0098 8.14645 15.1036C8.24021 15.1973 8.36739 15.25 8.5 15.25C8.63261 15.25 8.75979 15.1973 8.85355 15.1036C8.94732 15.0098 9 14.8826 9 14.75V13.75H9.09612C10.1459 13.75 11 12.8959 11 11.8461C11.0005 11.4214 10.8587 11.0087 10.5974 10.674C10.336 10.3392 9.97003 10.1016 9.55787 9.99906L7.68463 9.53075C7.48896 9.48207 7.31522 9.36927 7.19114 9.21034C7.06705 9.05141 6.99976 8.85551 7 8.65388C7 8.1555 7.4055 7.75 7.90387 7.75H9.09612C9.5945 7.75 10 8.1555 10 8.65388V8.75C10 8.88261 10.0527 9.00979 10.1464 9.10355C10.2402 9.19732 10.3674 9.25 10.5 9.25ZM6.5 19.25H14.5C15.0523 19.25 15.5 19.6977 15.5 20.25V28.75C15.5 29.3023 15.0523 29.75 14.5 29.75H6.5C5.94769 29.75 5.5 29.3023 5.5 28.75V20.25C5.5 19.6977 5.94769 19.25 6.5 19.25Z" fill="#3CB44B"/>
<path d="M6.5 19.25H9.5C10.0523 19.25 10.5 19.6977 10.5 20.25V28.75C10.5 29.3023 10.0523 29.75 9.5 29.75H6.5C5.94769 29.75 5.5 29.3023 5.5 28.75V20.25C5.5 19.6977 5.94769 19.25 6.5 19.25Z" fill="#D7E123"/>
<path d="M13.5 15.25H21.5C22.0523 15.25 22.5 15.6977 22.5 16.25V28.75C22.5 29.3023 22.0523 29.75 21.5 29.75H13.5C12.9477 29.75 12.5 29.3023 12.5 28.75V16.25C12.5 15.6977 12.9477 15.25 13.5 15.25Z" fill="#2387C3"/>
<path d="M13.5 15.25H16.5C17.0523 15.25 17.5 15.6977 17.5 16.25V28.75C17.5 29.3023 17.0523 29.75 16.5 29.75H13.5C12.9477 29.75 12.5 29.3023 12.5 28.75V16.25C12.5 15.6977 12.9477 15.25 13.5 15.25Z" fill="#5AD7FF"/>
<path d="M20.5 11.25H28.5C29.0523 11.25 29.5 11.6977 29.5 12.25V28.75C29.5 29.3023 29.0523 29.75 28.5 29.75H20.5C19.9477 29.75 19.5 29.3023 19.5 28.75V12.25C19.5 11.6977 19.9477 11.25 20.5 11.25Z" fill="#3CB44B"/>
<path d="M20.5 11.25H23.5C24.0523 11.25 24.5 11.6977 24.5 12.25V28.75C24.5 29.3023 24.0523 29.75 23.5 29.75H20.5C19.9477 29.75 19.5 29.3023 19.5 28.75V12.25C19.5 11.6977 19.9477 11.25 20.5 11.25Z" fill="#D7E123"/>
</svg>
