<svg width="76" height="77" viewBox="0 0 76 77" fill="none" xmlns="http://www.w3.org/2000/svg">
<g filter="url(#filter0_d_270_541)">
<path d="M38 10C43.1423 10 48.1691 11.5338 52.4448 14.4073C56.7205 17.2809 60.053 21.3653 62.0209 26.1438C63.9887 30.9224 64.5036 36.1807 63.5004 41.2536C62.4972 46.3265 60.0209 50.9863 56.3848 54.6436C52.7486 58.301 48.1159 60.7917 43.0723 61.8008C38.0288 62.8098 32.8011 62.292 28.0502 60.3126C23.2994 58.3332 19.2387 54.9813 16.3818 50.6807C13.5249 46.3801 12 41.3239 12 36.1516C12 29.2158 14.7393 22.564 19.6152 17.6596C24.4912 12.7553 31.1044 10 38 10Z" fill="white"/>
</g>
<mask id="mask0_270_541" style="mask-type:luminance" maskUnits="userSpaceOnUse" x="28" y="26" width="20" height="21">
<path d="M28 26.0933V46.21H48V26.0933H28Z" fill="white"/>
</mask>
<g mask="url(#mask0_270_541)">
<path d="M38.8498 26.9452V45.358C38.8498 45.5841 38.7605 45.8009 38.6016 45.9608C38.4426 46.1206 38.2271 46.2104 38.0023 46.2104C37.7775 46.2104 37.5619 46.1206 37.403 45.9608C37.2441 45.8009 37.1548 45.5841 37.1548 45.358V26.9452C37.1548 26.7192 37.2441 26.5023 37.403 26.3425C37.5619 26.1826 37.7775 26.0928 38.0023 26.0928C38.2271 26.0928 38.4426 26.1826 38.6016 26.3425C38.7605 26.5023 38.8498 26.7192 38.8498 26.9452Z" fill="#EE0033"/>
<path d="M46.0118 34.1502C46.0122 34.2623 45.9906 34.3732 45.9482 34.4768C45.9058 34.5804 45.8435 34.6745 45.7648 34.7537C45.6049 34.9125 45.3894 35.0015 45.1648 35.0015C44.9401 35.0015 44.7246 34.9125 44.5648 34.7537L38.0018 28.1394L31.4388 34.7537C31.2779 34.9051 31.0649 34.9876 30.8446 34.9839C30.6244 34.9803 30.4142 34.8906 30.2584 34.7339C30.1027 34.5773 30.0136 34.3659 30.0099 34.1443C30.0062 33.9228 30.0883 33.7085 30.2388 33.5467L37.4018 26.342C37.5616 26.1832 37.7771 26.0942 38.0018 26.0942C38.2264 26.0942 38.4419 26.1832 38.6018 26.342L45.7648 33.5467C45.8435 33.626 45.9058 33.7201 45.9482 33.8237C45.9906 33.9272 46.0122 34.0382 46.0118 34.1502Z" fill="#EE0033"/>
</g>
<g clip-path="url(#clip0_270_541)">
<path d="M35.2149 46.7975C35.2149 46.7975 20.7649 47.9341 19.2829 42.8194C17.8009 37.7047 22.2469 28.9892 29.8429 26.1477C37.4389 23.3062 50.1649 22.9713 53.7429 27.8677C56.2939 31.2775 58.7429 42.4412 53.7429 45.2827C49.8529 46.9926 43.3269 46.7985 42.2569 46.7985C40.6729 46.7985 35.2169 51.3458 35.2169 51.3458L35.2149 46.7975Z" fill="#EE0033"/>
<path d="M37.316 44.4738C37.316 44.4738 25.623 45.3881 24.754 42.3887C23.885 39.3893 27.236 33.1582 31.691 31.4915C36.146 29.8249 47.043 29.8631 49.141 32.7348C50.641 34.7343 52.863 41.8878 49.927 43.5585C47.645 44.5583 42.072 44.4738 41.445 44.4738C40.516 44.4738 37.316 47.1403 37.316 47.1403V44.4738Z" fill="white"/>
<path d="M27.158 31.0952C27.4317 31.0998 27.7006 31.0223 27.9303 30.8728C28.1601 30.7232 28.3404 30.5082 28.4484 30.2552C28.5563 30.0022 28.5869 29.7226 28.5363 29.452C28.4857 29.1814 28.3562 28.9321 28.1643 28.7358C27.9724 28.5395 27.7268 28.4051 27.4586 28.3497C27.1905 28.2943 26.9121 28.3203 26.6588 28.4246C26.4055 28.5289 26.1887 28.7066 26.0361 28.9352C25.8836 29.1638 25.8021 29.4328 25.802 29.7081C25.7991 30.0729 25.9403 30.4239 26.1946 30.684C26.4489 30.9441 26.7954 31.092 27.158 31.0952Z" fill="white"/>
<path d="M49.763 30.4145C50.0367 30.4191 50.3055 30.3417 50.5353 30.1921C50.7651 30.0425 50.9454 29.8275 51.0533 29.5745C51.1612 29.3215 51.1919 29.0419 51.1413 28.7713C51.0907 28.5008 50.9612 28.2515 50.7693 28.0552C50.5774 27.8589 50.3317 27.7244 50.0636 27.669C49.7955 27.6136 49.5171 27.6397 49.2638 27.744C49.0104 27.8482 48.7937 28.026 48.6411 28.2545C48.4886 28.4831 48.4071 28.7522 48.407 29.0275C48.4041 29.3922 48.5453 29.7432 48.7996 30.0033C49.0538 30.2634 49.4004 30.4113 49.763 30.4145Z" fill="white"/>
<path d="M31.958 33.1653L27.569 29.3994L26.9 30.2151L31.289 33.981L31.958 33.1653Z" fill="white"/>
<path d="M46.173 34.1482L49.932 29.7225L49.146 29.0234L45.387 33.4491L46.173 34.1482Z" fill="white"/>
<path d="M34.844 39.4165C35.2088 39.4227 35.5672 39.3196 35.8736 39.1203C36.18 38.921 36.4205 38.6346 36.5645 38.2974C36.7086 37.9602 36.7497 37.5876 36.6826 37.2269C36.6155 36.8661 36.4433 36.5336 36.1878 36.2717C35.9322 36.0097 35.605 35.8301 35.2478 35.7557C34.8905 35.6813 34.5193 35.7155 34.1814 35.8539C33.8434 35.9923 33.5541 36.2287 33.3501 36.533C33.1462 36.8373 33.0368 37.1957 33.036 37.5627C33.0335 37.8039 33.0783 38.0432 33.1678 38.267C33.2574 38.4907 33.3899 38.6945 33.5578 38.8667C33.7258 39.0389 33.9258 39.1761 34.1465 39.2704C34.3672 39.3647 34.6042 39.4144 34.844 39.4165Z" fill="#EE0033"/>
<path d="M46.598 39.4165C46.9628 39.4227 47.3212 39.3196 47.6276 39.1203C47.934 38.921 48.1745 38.6346 48.3186 38.2974C48.4626 37.9602 48.5037 37.5876 48.4366 37.2269C48.3696 36.8661 48.1973 36.5336 47.9418 36.2717C47.6863 36.0097 47.3591 35.8301 47.0018 35.7557C46.6445 35.6813 46.2733 35.7155 45.9354 35.8539C45.5975 35.9923 45.3081 36.2287 45.1042 36.533C44.9002 36.8373 44.7909 37.1957 44.79 37.5627C44.7875 37.8039 44.8323 38.0432 44.9218 38.267C45.0114 38.4907 45.1439 38.6945 45.3118 38.8667C45.4798 39.0389 45.6798 39.1761 45.9005 39.2704C46.1212 39.3647 46.3582 39.4144 46.598 39.4165Z" fill="#EE0033"/>
<path d="M42.42 38.954C42.446 38.9731 42.4677 38.9975 42.4836 39.0255C42.4996 39.0536 42.5094 39.0848 42.5125 39.1169C42.5157 39.1491 42.512 39.1816 42.5017 39.2122C42.4914 39.2429 42.4748 39.271 42.453 39.2947C42.2363 39.5183 41.9762 39.6945 41.6887 39.8125C41.4012 39.9304 41.0926 39.9875 40.7822 39.9803C40.4718 39.973 40.1662 39.9015 39.8845 39.7703C39.6028 39.639 39.3511 39.4508 39.145 39.2173C39.1243 39.1927 39.1089 39.1638 39.1001 39.1328C39.0912 39.1018 39.0889 39.0692 39.0935 39.0372C39.098 39.0052 39.1092 38.9745 39.1264 38.9472C39.1435 38.9199 39.1662 38.8965 39.193 38.8787C39.2487 38.8423 39.3155 38.8271 39.3814 38.836C39.4472 38.8448 39.5078 38.8771 39.552 38.9269C39.7121 39.0974 39.9042 39.2342 40.1173 39.3295C40.3304 39.4248 40.5602 39.4767 40.7934 39.4821C41.0266 39.4875 41.2585 39.4464 41.4757 39.3611C41.693 39.2758 41.8912 39.148 42.059 38.9852C42.1055 38.9375 42.1675 38.9081 42.2337 38.9024C42.3 38.8967 42.3661 38.915 42.42 38.954Z" fill="#EE0033"/>
</g>
<defs>
<filter id="filter0_d_270_541" x="0" y="0" width="76" height="76.3032" filterUnits="userSpaceOnUse" color-interpolation-filters="sRGB">
<feFlood flood-opacity="0" result="BackgroundImageFix"/>
<feColorMatrix in="SourceAlpha" type="matrix" values="0 0 0 0 0 0 0 0 0 0 0 0 0 0 0 0 0 0 127 0" result="hardAlpha"/>
<feOffset dy="2"/>
<feGaussianBlur stdDeviation="6"/>
<feColorMatrix type="matrix" values="0 0 0 0 0.933333 0 0 0 0 0 0 0 0 0 0.2 0 0 0 0.161 0"/>
<feBlend mode="normal" in2="BackgroundImageFix" result="effect1_dropShadow_270_541"/>
<feBlend mode="normal" in="SourceGraphic" in2="effect1_dropShadow_270_541" result="shape"/>
</filter>
<clipPath id="clip0_270_541">
<rect width="37.645" height="27.2621" fill="white" transform="translate(19 24.0815)"/>
</clipPath>
</defs>
</svg>
