<svg width="20" height="19" viewBox="0 0 20 19" fill="none" xmlns="http://www.w3.org/2000/svg">
<path d="M10.1984 3.67634C10.1304 3.67453 10.0624 3.6777 9.99491 3.68581V0.0101025C10.0624 0.00223951 10.1304 -0.000926269 10.1984 0.000631457C12.322 -0.022643 14.396 0.598039 16.107 1.76887C16.226 1.8507 16.3244 1.9557 16.3953 2.07655C16.4663 2.19739 16.508 2.33118 16.5177 2.46859C16.5274 2.606 16.5048 2.74372 16.4514 2.87215C16.3981 3.00059 16.3153 3.11665 16.2088 3.21226L14.7912 4.50221C14.6259 4.656 14.4082 4.75146 14.1755 4.7722C13.9429 4.79294 13.7097 4.73766 13.516 4.61586C12.5415 3.9903 11.3822 3.66199 10.1984 3.67634Z" fill="black"/>
<path d="M19.9945 9.70657C20.0407 11.0047 19.794 12.2974 19.2702 13.5014C18.7464 14.7053 17.9573 15.7936 16.9537 16.6962C15.1002 18.2374 12.683 19.0596 10.1984 18.9939C10.1304 18.9954 10.0624 18.9922 9.99491 18.9844V15.3096C10.0624 15.3175 10.1304 15.3207 10.1984 15.3191C11.4557 15.3534 12.6931 15.0224 13.7389 14.372C14.2909 14.0163 14.7598 13.5603 15.1175 13.0314C15.4752 12.5026 15.7141 11.9119 15.82 11.2949H11.2161C10.9467 11.2934 10.6888 11.1931 10.4983 11.0158C10.3078 10.8385 10.2 10.5985 10.1984 10.3478V8.71874C10.2 8.46801 10.3078 8.22798 10.4983 8.05069C10.6888 7.87339 10.9467 7.77313 11.2161 7.77164H18.9198C19.171 7.77021 19.4137 7.85599 19.6006 8.01221C19.7875 8.16843 19.9051 8.38387 19.9304 8.61645C19.9742 8.97838 19.9956 9.34235 19.9945 9.70657Z" fill="black"/>
<path d="M4.3825 7.61706C4.16921 8.2241 4.05899 8.8584 4.05583 9.49706C4.05818 10.1366 4.17194 10.7715 4.39267 11.3771C4.78254 12.4859 5.52792 13.4571 6.52856 14.1599C7.5292 14.8628 8.73711 15.2636 9.98983 15.3085V18.9832C8.13677 18.9505 6.32864 18.4465 4.76123 17.526C3.19381 16.6055 1.92684 15.3035 1.09747 13.7609H1.0873C0.313083 12.3284 -0.0584271 10.7366 0.00745815 9.13426C0.0733434 7.53191 0.574475 5.97122 1.46406 4.59794C2.35364 3.22466 3.60266 2.08359 5.09448 1.28127C6.5863 0.478952 8.27226 0.0415601 9.99492 0.00993814V3.6847C8.841 3.72343 7.72235 4.06498 6.76802 4.66993C5.81369 5.27488 5.06257 6.1186 4.6013 7.10374C4.51649 7.27484 4.44356 7.44595 4.3825 7.61706Z" fill="black"/>
</svg>
