<svg width="76" height="72" viewBox="0 0 76 72" fill="none" xmlns="http://www.w3.org/2000/svg">
<g filter="url(#filter0_d_333_671)">
<path d="M38 10C43.1423 10 48.1691 11.3944 52.4448 14.0068C56.7205 16.6192 60.053 20.3323 62.0209 24.6766C63.9887 29.0208 64.5036 33.8011 63.5004 38.413C62.4972 43.0248 60.0209 47.2611 56.3848 50.5861C52.7486 53.911 48.1159 56.1753 43.0723 57.0927C38.0288 58.01 32.8011 57.5392 28.0502 55.7398C23.2994 53.9403 19.2387 50.893 16.3818 46.9833C13.5249 43.0736 12 38.477 12 33.7748C12 27.4693 14.7393 21.4221 19.6152 16.9635C24.4912 12.5048 31.1044 10 38 10Z" fill="#EE0033"/>
</g>
<mask id="mask0_333_671" style="mask-type:luminance" maskUnits="userSpaceOnUse" x="28" y="24" width="20" height="19">
<path d="M28 24.6307V42.9189H48V24.6307H28Z" fill="white"/>
</mask>
<g mask="url(#mask0_333_671)">
<path d="M38.8498 25.4047V42.144C38.8498 42.3495 38.7605 42.5466 38.6016 42.692C38.4426 42.8373 38.2271 42.9189 38.0023 42.9189C37.7775 42.9189 37.5619 42.8373 37.403 42.692C37.2441 42.5466 37.1548 42.3495 37.1548 42.144V25.4047C37.1548 25.1992 37.2441 25.0021 37.403 24.8567C37.5619 24.7114 37.7775 24.6298 38.0023 24.6298C38.2271 24.6298 38.4426 24.7114 38.6016 24.8567C38.7605 25.0021 38.8498 25.1992 38.8498 25.4047Z" fill="white"/>
<path d="M46.0118 31.9547C46.0122 32.0565 45.9906 32.1574 45.9482 32.2516C45.9058 32.3457 45.8435 32.4313 45.7648 32.5033C45.6049 32.6476 45.3894 32.7285 45.1648 32.7285C44.9401 32.7285 44.7246 32.6476 44.5648 32.5033L38.0018 26.4901L31.4388 32.5033C31.2779 32.6409 31.0649 32.7159 30.8446 32.7126C30.6244 32.7092 30.4142 32.6277 30.2584 32.4853C30.1027 32.3429 30.0136 32.1507 30.0099 31.9493C30.0062 31.7479 30.0883 31.5531 30.2388 31.406L37.4018 24.8561C37.5616 24.7118 37.7771 24.6309 38.0018 24.6309C38.2264 24.6309 38.4419 24.7118 38.6018 24.8561L45.7648 31.406C45.8435 31.478 45.9058 31.5636 45.9482 31.6578C45.9906 31.7519 46.0122 31.8528 46.0118 31.9547Z" fill="white"/>
</g>
<defs>
<filter id="filter0_d_333_671" x="0" y="0" width="76" height="71.5498" filterUnits="userSpaceOnUse" color-interpolation-filters="sRGB">
<feFlood flood-opacity="0" result="BackgroundImageFix"/>
<feColorMatrix in="SourceAlpha" type="matrix" values="0 0 0 0 0 0 0 0 0 0 0 0 0 0 0 0 0 0 127 0" result="hardAlpha"/>
<feOffset dy="2"/>
<feGaussianBlur stdDeviation="6"/>
<feColorMatrix type="matrix" values="0 0 0 0 0.933333 0 0 0 0 0 0 0 0 0 0.2 0 0 0 0.161 0"/>
<feBlend mode="normal" in2="BackgroundImageFix" result="effect1_dropShadow_333_671"/>
<feBlend mode="normal" in="SourceGraphic" in2="effect1_dropShadow_333_671" result="shape"/>
</filter>
</defs>
</svg>
