<svg width="21" height="19" viewBox="0 0 21 19" fill="none" xmlns="http://www.w3.org/2000/svg">
<path opacity="0.502" d="M14.4467 0H5.9187C2.20999 0 0 2.0577 0 5.50831V13.4441C0 16.8956 2.211 18.9524 5.9187 18.9524H14.4457C18.1544 18.9524 20.3644 16.8947 20.3644 13.4441V5.50925C20.3654 2.0577 18.1544 0 14.4467 0Z" fill="black" fill-opacity="0.36"/>
<path d="M12.134 6.9023L12.1848 9.69948L14.8643 9.66165C14.909 9.66104 14.9534 9.66963 14.9942 9.6868C15.0351 9.70397 15.0713 9.7293 15.1004 9.76099C15.1295 9.79268 15.1508 9.82995 15.1626 9.87015C15.1745 9.91035 15.1767 9.95249 15.1691 9.99357L14.8124 11.8045C14.7974 11.8685 14.7605 11.9262 14.7071 11.969C14.6538 12.0118 14.587 12.0374 14.5168 12.0418L12.2245 12.0796L12.3474 18.9534L9.29103 19.0007L9.16706 12.126L7.43972 12.1543C7.39969 12.1543 7.36005 12.147 7.32307 12.1327C7.28608 12.1185 7.25248 12.0976 7.22417 12.0712C7.19587 12.0449 7.17341 12.0136 7.1581 11.9792C7.14278 11.9448 7.13489 11.9079 7.13489 11.8706L7.10441 10.0692C7.10441 9.99398 7.13653 9.92182 7.19369 9.86862C7.25086 9.81542 7.32839 9.78553 7.40924 9.78553L9.13658 9.75716L9.08578 6.67534C9.07784 6.30129 9.14947 5.92947 9.29656 5.58129C9.44366 5.23311 9.6633 4.91544 9.94284 4.64658C10.2224 4.37772 10.5563 4.16297 10.9254 4.0147C11.2945 3.86643 11.6914 3.78757 12.0934 3.78265L14.8439 3.74483C14.884 3.74483 14.9236 3.75217 14.9606 3.76642C14.9976 3.78068 15.0312 3.80158 15.0595 3.82792C15.0878 3.85426 15.1102 3.88554 15.1256 3.91996C15.1409 3.95437 15.1488 3.99126 15.1488 4.02852L15.1894 6.30371C15.1894 6.34097 15.1815 6.37786 15.1662 6.41227C15.1509 6.44669 15.1284 6.47797 15.1001 6.50431C15.0718 6.53065 15.0382 6.55155 15.0012 6.56581C14.9642 6.58006 14.9246 6.5874 14.8846 6.5874L12.4399 6.62523C12.3999 6.6234 12.3599 6.62926 12.3225 6.64243C12.285 6.65561 12.2509 6.67583 12.2222 6.70182C12.1935 6.72782 12.1708 6.75903 12.1557 6.79352C12.1405 6.82801 12.1331 6.86504 12.134 6.9023Z" fill="black"/>
</svg>
